<?xml version="1.0" encoding="UTF-8" standalone="no"?>
<!-- Created with Inkscape (http://www.inkscape.org/) -->

<svg
   xmlns:dc="http://purl.org/dc/elements/1.1/"
   xmlns:cc="http://creativecommons.org/ns#"
   xmlns:rdf="http://www.w3.org/1999/02/22-rdf-syntax-ns#"
   xmlns:svg="http://www.w3.org/2000/svg"
   xmlns="http://www.w3.org/2000/svg"
   xmlns:sodipodi="http://sodipodi.sourceforge.net/DTD/sodipodi-0.dtd"
   xmlns:inkscape="http://www.inkscape.org/namespaces/inkscape"
   width="200"
   height="42"
   viewBox="0 0 52.916665 11.1125"
   version="1.1"
   id="svg2765"
   inkscape:version="0.92.3 (2405546, 2018-03-11)"
   sodipodi:docname="tfs-logo.svg">
  <defs
     id="defs2759" />
  <sodipodi:namedview
     id="base"
     pagecolor="#ffffff"
     bordercolor="#666666"
     borderopacity="1.0"
     inkscape:pageopacity="0.0"
     inkscape:pageshadow="2"
     inkscape:zoom="4"
     inkscape:cx="17.576515"
     inkscape:cy="36.288243"
     inkscape:document-units="px"
     inkscape:current-layer="layer1"
     showgrid="false"
     units="px"
     inkscape:window-width="3840"
     inkscape:window-height="2037"
     inkscape:window-x="0"
     inkscape:window-y="0"
     inkscape:window-maximized="1"
     inkscape:snap-bbox="true"
     inkscape:bbox-nodes="true">
    <inkscape:grid
       type="xygrid"
       id="grid3344" />
  </sodipodi:namedview>
  <metadata
     id="metadata2762">
    <rdf:RDF>
      <cc:Work
         rdf:about="">
        <dc:format>image/svg+xml</dc:format>
        <dc:type
           rdf:resource="http://purl.org/dc/dcmitype/StillImage" />
        <dc:title />
      </cc:Work>
    </rdf:RDF>
  </metadata>
  <g
     inkscape:label="Layer 1"
     inkscape:groupmode="layer"
     id="layer1"
     transform="translate(0,-285.88749)">
    <path
       inkscape:connector-curvature="0"
       id="path819"
       style="font-style:normal;font-variant:normal;font-weight:normal;font-stretch:normal;font-size:medium;line-height:1.25;font-family:'Myriad Pro';-inkscape-font-specification:'Myriad Pro';letter-spacing:0px;word-spacing:0px;fill:#ffffff;fill-opacity:1;stroke:none;stroke-width:0.14676525"
       d="m 1.0097449,293.2482 h 1.0625803 v -3.07033 h 1.0273566 v -0.88646 H 0 v 0.88646 h 1.0097449 z" />
    <path
       inkscape:connector-curvature="0"
       id="path821"
       style="font-style:normal;font-variant:normal;font-weight:normal;font-stretch:normal;font-size:medium;line-height:1.25;font-family:'Myriad Pro';-inkscape-font-specification:'Myriad Pro';letter-spacing:0px;word-spacing:0px;fill:#ffffff;fill-opacity:1;stroke:none;stroke-width:0.14676525"
       d="m 4.4932179,290.29528 c -0.9862624,0 -1.5909351,0.61055 -1.5909351,1.52636 0,0.9393 0.6692495,1.49114 1.532229,1.49114 0.8101441,0 1.5615822,-0.48726 1.5615822,-1.5381 0,-0.86885 -0.598802,-1.4794 -1.5028761,-1.4794 z m -0.035224,0.74557 c 0.3170131,0 0.4461666,0.36398 0.4461666,0.76318 0,0.46378 -0.1585066,0.76318 -0.4402958,0.76318 -0.3287543,0 -0.4696489,-0.33463 -0.4696489,-0.76318 0,-0.38159 0.1174123,-0.76318 0.4637781,-0.76318 z" />
    <path
       inkscape:connector-curvature="0"
       id="path823"
       style="font-style:normal;font-variant:normal;font-weight:normal;font-stretch:normal;font-size:medium;line-height:1.25;font-family:'Myriad Pro';-inkscape-font-specification:'Myriad Pro';letter-spacing:0px;word-spacing:0px;fill:#ffffff;fill-opacity:1;stroke:none;stroke-width:0.14676525"
       d="m 6.5117905,293.2482 h 1.0567098 v -1.42656 c 0,-0.0704 0.00587,-0.12915 0.017613,-0.18199 0.052835,-0.23482 0.2641775,-0.36397 0.5753196,-0.36397 0.1115417,0 0.1937302,0.0117 0.2700482,0.0294 v -0.99213 c -0.076318,-0.0176 -0.1174122,-0.0176 -0.211342,-0.0176 -0.2465657,0 -0.616414,0.14677 -0.7690498,0.58706 H 7.4276078 L 7.392382,290.35986 H 6.4883082 c 0.011742,0.2407 0.023482,0.51661 0.023482,0.97452 z" />
    <path
       inkscape:connector-curvature="0"
       id="path825"
       style="font-style:normal;font-variant:normal;font-weight:normal;font-stretch:normal;font-size:medium;line-height:1.25;font-family:'Myriad Pro';-inkscape-font-specification:'Myriad Pro';letter-spacing:0px;word-spacing:0px;fill:#ffffff;fill-opacity:1;stroke:none;stroke-width:0.14676525"
       d="m 10.2721,290.29528 c -0.9862626,0 -1.5909355,0.61055 -1.5909355,1.52636 0,0.9393 0.6692495,1.49114 1.5322295,1.49114 0.810144,0 1.561582,-0.48726 1.561582,-1.5381 0,-0.86885 -0.598802,-1.4794 -1.502876,-1.4794 z m -0.03522,0.74557 c 0.317013,0 0.446166,0.36398 0.446166,0.76318 0,0.46378 -0.158506,0.76318 -0.440295,0.76318 -0.3287544,0 -0.469649,-0.33463 -0.469649,-0.76318 0,-0.38159 0.117412,-0.76318 0.463778,-0.76318 z" />
    <path
       inkscape:connector-curvature="0"
       id="path827"
       style="font-style:normal;font-variant:normal;font-weight:normal;font-stretch:normal;font-size:medium;line-height:1.25;font-family:'Myriad Pro';-inkscape-font-specification:'Myriad Pro';letter-spacing:0px;word-spacing:0px;fill:#ffffff;fill-opacity:1;stroke:none;stroke-width:0.14676525"
       d="m 12.290673,293.2482 h 1.056709 v -1.6379 c 0,-0.0763 0.0059,-0.15851 0.02935,-0.21134 0.04697,-0.11154 0.140895,-0.25244 0.346366,-0.25244 0.252437,0 0.369849,0.19373 0.369849,0.52836 v 1.57332 h 1.05671 v -1.70248 c 0,-0.79253 -0.363978,-1.25044 -1.039098,-1.25044 -0.48139,0 -0.757309,0.28179 -0.86298,0.43443 H 13.2241 l -0.04697,-0.36985 h -0.90994 c 0.01174,0.26418 0.02348,0.5988 0.02348,0.98039 z" />
    <path
       inkscape:connector-curvature="0"
       id="path829"
       style="font-style:normal;font-variant:normal;font-weight:normal;font-stretch:normal;font-size:medium;line-height:1.25;font-family:'Myriad Pro';-inkscape-font-specification:'Myriad Pro';letter-spacing:0px;word-spacing:0px;fill:#ffffff;fill-opacity:1;stroke:none;stroke-width:0.14676525"
       d="m 15.888163,289.81389 v 0.54597 h -0.358107 v 0.77492 h 0.358107 v 1.00975 c 0,0.44029 0.09393,0.72795 0.270048,0.90407 0.152636,0.15264 0.410943,0.26418 0.722085,0.26418 0.270048,0 0.504873,-0.0411 0.628156,-0.0822 v -0.80426 c -0.08806,0.0235 -0.129154,0.0235 -0.252437,0.0235 -0.252436,0 -0.334624,-0.1409 -0.334624,-0.48726 v -0.82776 h 0.598802 v -0.77492 H 16.921391 V 289.538 Z" />
    <path
       inkscape:connector-curvature="0"
       id="path831"
       style="font-style:normal;font-variant:normal;font-weight:normal;font-stretch:normal;font-size:medium;line-height:1.25;font-family:'Myriad Pro';-inkscape-font-specification:'Myriad Pro';letter-spacing:0px;word-spacing:0px;fill:#ffffff;fill-opacity:1;stroke:none;stroke-width:0.14676525"
       d="m 19.421995,290.29528 c -0.986262,0 -1.590935,0.61055 -1.590935,1.52636 0,0.9393 0.66925,1.49114 1.532229,1.49114 0.810145,0 1.561583,-0.48726 1.561583,-1.5381 0,-0.86885 -0.598803,-1.4794 -1.502877,-1.4794 z m -0.03522,0.74557 c 0.317013,0 0.446166,0.36398 0.446166,0.76318 0,0.46378 -0.158506,0.76318 -0.440296,0.76318 -0.328754,0 -0.469648,-0.33463 -0.469648,-0.76318 0,-0.38159 0.117412,-0.76318 0.463778,-0.76318 z" />
    <path
       inkscape:connector-curvature="0"
       id="path833"
       style="font-style:normal;font-variant:normal;font-weight:normal;font-stretch:normal;font-size:medium;line-height:1.25;font-family:'Myriad Pro';-inkscape-font-specification:'Myriad Pro';letter-spacing:0px;word-spacing:0px;fill:#ffffff;fill-opacity:1;stroke:none;stroke-width:0.14676525"
       d="m 22.633861,293.2482 h 1.06258 v -1.50288 h 1.391334 v -0.8571 h -1.391334 v -0.73383 h 1.479394 v -0.86298 h -2.541974 z" />
    <path
       inkscape:connector-curvature="0"
       id="path835"
       style="font-style:normal;font-variant:normal;font-weight:normal;font-stretch:normal;font-size:medium;line-height:1.25;font-family:'Myriad Pro';-inkscape-font-specification:'Myriad Pro';letter-spacing:0px;word-spacing:0px;fill:#ffffff;fill-opacity:1;stroke:none;stroke-width:0.14676525"
       d="m 26.751176,293.2482 v -2.88834 h -1.05671 v 2.88834 z m -0.528355,-4.18574 c -0.328754,0 -0.540096,0.21134 -0.540096,0.499 0,0.28179 0.205471,0.50487 0.534225,0.50487 0.334625,0 0.545966,-0.22308 0.545966,-0.50487 -0.0059,-0.28766 -0.211341,-0.499 -0.540095,-0.499 z" />
    <path
       inkscape:connector-curvature="0"
       id="path837"
       style="font-style:normal;font-variant:normal;font-weight:normal;font-stretch:normal;font-size:medium;line-height:1.25;font-family:'Myriad Pro';-inkscape-font-specification:'Myriad Pro';letter-spacing:0px;word-spacing:0px;fill:#ffffff;fill-opacity:1;stroke:none;stroke-width:0.14676525"
       d="m 27.414373,293.2482 h 1.056709 v -4.16813 h -1.056709 z" />
    <path
       inkscape:connector-curvature="0"
       id="path839"
       style="font-style:normal;font-variant:normal;font-weight:normal;font-stretch:normal;font-size:medium;line-height:1.25;font-family:'Myriad Pro';-inkscape-font-specification:'Myriad Pro';letter-spacing:0px;word-spacing:0px;fill:#ffffff;fill-opacity:1;stroke:none;stroke-width:0.14676525"
       d="m 29.134278,293.2482 h 1.027356 v -1.65551 c 0,-0.0705 0,-0.14677 0.02935,-0.21134 0.04109,-0.0998 0.129153,-0.2407 0.322884,-0.2407 0.234823,0 0.334624,0.21134 0.334624,0.53423 v 1.57332 h 1.027356 v -1.64964 c 0,-0.0587 0.0059,-0.15264 0.02935,-0.21134 0.04697,-0.13503 0.152635,-0.24657 0.322884,-0.24657 0.234823,0 0.340495,0.20547 0.340495,0.56358 v 1.54397 h 1.027356 v -1.70248 c 0,-0.7984 -0.358106,-1.25044 -0.980392,-1.25044 -0.193728,0 -0.363977,0.0411 -0.510742,0.11742 -0.152635,0.0763 -0.281789,0.19373 -0.3992,0.34049 h -0.01175 c -0.12328,-0.28766 -0.41094,-0.45791 -0.78079,-0.45791 -0.493131,0 -0.745567,0.28179 -0.851236,0.42269 h -0.02347 l -0.04109,-0.35811 h -0.886462 c 0.01175,0.26418 0.0235,0.5988 0.0235,0.98039 z" />
    <path
       inkscape:connector-curvature="0"
       id="path841"
       style="font-style:normal;font-variant:normal;font-weight:normal;font-stretch:normal;font-size:medium;line-height:1.25;font-family:'Myriad Pro';-inkscape-font-specification:'Myriad Pro';letter-spacing:0px;word-spacing:0px;fill:#ffffff;fill-opacity:1;stroke:none;stroke-width:0.14676525"
       d="m 35.312267,293.06621 c 0.223084,0.11741 0.686861,0.24657 1.162381,0.24657 1.15651,0 1.690735,-0.58706 1.690735,-1.26805 0,-0.55184 -0.322884,-0.93343 -1.033227,-1.19174 -0.499001,-0.18786 -0.710345,-0.27005 -0.710345,-0.46965 0,-0.17612 0.17612,-0.29353 0.499004,-0.29353 0.399201,0 0.692732,0.11154 0.862978,0.18786 l 0.223084,-0.84537 c -0.264176,-0.11741 -0.598803,-0.20547 -1.074322,-0.20547 -0.998003,0 -1.585064,0.5401 -1.585064,1.2387 0,0.58706 0.440296,0.95691 1.109544,1.19174 0.446167,0.15263 0.622287,0.26417 0.622287,0.4579 0,0.1996 -0.17612,0.32289 -0.540097,0.32289 -0.393332,0 -0.786662,-0.12329 -1.027356,-0.24657 z" />
    <path
       inkscape:connector-curvature="0"
       id="path843"
       style="font-style:normal;font-variant:normal;font-weight:normal;font-stretch:normal;font-size:medium;line-height:1.25;font-family:'Myriad Pro';-inkscape-font-specification:'Myriad Pro';letter-spacing:0px;word-spacing:0px;fill:#ffffff;fill-opacity:1;stroke:none;stroke-width:0.14676525"
       d="m 40.838622,292.41457 c -0.129154,0.0528 -0.281789,0.0704 -0.46378,0.0704 -0.369848,0 -0.698603,-0.22308 -0.698603,-0.69273 0,-0.42268 0.27592,-0.69273 0.675121,-0.69273 0.211341,0 0.352237,0.0352 0.452038,0.0763 l 0.152636,-0.7808 c -0.205473,-0.0704 -0.45791,-0.0998 -0.669251,-0.0998 -1.127156,0 -1.690735,0.71035 -1.690735,1.53223 0,0.92169 0.604674,1.48527 1.561582,1.48527 0.322884,0 0.622284,-0.047 0.798404,-0.12329 z" />
    <path
       inkscape:connector-curvature="0"
       id="path845"
       style="font-style:normal;font-variant:normal;font-weight:normal;font-stretch:normal;font-size:medium;line-height:1.25;font-family:'Myriad Pro';-inkscape-font-specification:'Myriad Pro';letter-spacing:0px;word-spacing:0px;fill:#ffffff;fill-opacity:1;stroke:none;stroke-width:0.14676525"
       d="m 41.391469,293.2482 h 1.056709 v -1.70248 c 0,-0.047 0.0059,-0.12328 0.02935,-0.17024 0.04697,-0.11155 0.140896,-0.22896 0.340495,-0.22896 0.264178,0 0.375719,0.20547 0.375719,0.54597 v 1.55571 h 1.056709 v -1.67312 c 0,-0.81602 -0.358106,-1.2798 -1.009743,-1.2798 -0.152636,0 -0.311142,0.0352 -0.440296,0.0998 -0.129154,0.0587 -0.240694,0.15264 -0.340497,0.27005 h -0.01175 v -1.58506 h -1.056709 z" />
    <path
       inkscape:connector-curvature="0"
       id="path847"
       style="font-style:normal;font-variant:normal;font-weight:normal;font-stretch:normal;font-size:medium;line-height:1.25;font-family:'Myriad Pro';-inkscape-font-specification:'Myriad Pro';letter-spacing:0px;word-spacing:0px;fill:#ffffff;fill-opacity:1;stroke:none;stroke-width:0.14676525"
       d="m 46.355711,290.29528 c -0.986263,0 -1.590934,0.61055 -1.590934,1.52636 0,0.9393 0.66925,1.49114 1.532228,1.49114 0.810144,0 1.561582,-0.48726 1.561582,-1.5381 0,-0.86885 -0.598803,-1.4794 -1.502876,-1.4794 z m -0.03522,0.74557 c 0.317013,0 0.446167,0.36398 0.446167,0.76318 0,0.46378 -0.158507,0.76318 -0.440296,0.76318 -0.328753,0 -0.469649,-0.33463 -0.469649,-0.76318 0,-0.38159 0.117412,-0.76318 0.463778,-0.76318 z" />
    <path
       inkscape:connector-curvature="0"
       id="path849"
       style="font-style:normal;font-variant:normal;font-weight:normal;font-stretch:normal;font-size:medium;line-height:1.25;font-family:'Myriad Pro';-inkscape-font-specification:'Myriad Pro';letter-spacing:0px;word-spacing:0px;fill:#ffffff;fill-opacity:1;stroke:none;stroke-width:0.14676525"
       d="m 49.841387,290.29528 c -0.986263,0 -1.590934,0.61055 -1.590934,1.52636 0,0.9393 0.669248,1.49114 1.532229,1.49114 0.810143,0 1.561581,-0.48726 1.561581,-1.5381 0,-0.86885 -0.598802,-1.4794 -1.502876,-1.4794 z m -0.03522,0.74557 c 0.317013,0 0.446167,0.36398 0.446167,0.76318 0,0.46378 -0.158507,0.76318 -0.440296,0.76318 -0.328753,0 -0.469649,-0.33463 -0.469649,-0.76318 0,-0.38159 0.117412,-0.76318 0.463778,-0.76318 z" />
    <path
       inkscape:connector-curvature="0"
       id="path851"
       style="font-style:normal;font-variant:normal;font-weight:normal;font-stretch:normal;font-size:medium;line-height:1.25;font-family:'Myriad Pro';-inkscape-font-specification:'Myriad Pro';letter-spacing:0px;word-spacing:0px;fill:#ffffff;fill-opacity:1;stroke:none;stroke-width:0.14676525"
       d="m 51.85996,293.2482 h 1.056708 v -4.16813 H 51.85996 Z" />
    <rect
       style="opacity:1;fill:#ee3b2f;fill-opacity:1;stroke:none;stroke-width:0.70853931;stroke-linecap:round;stroke-linejoin:miter;stroke-miterlimit:4;stroke-dasharray:none;stroke-dashoffset:0;stroke-opacity:1;paint-order:stroke fill markers"
       id="rect828"
       width="52.916664"
       height="0.52916664"
       x="0"
       y="294.61874" />
  </g>
</svg>
