<?xml version="1.0" encoding="UTF-8" standalone="no"?>
<!-- Created with Inkscape (http://www.inkscape.org/) -->

<svg
   xmlns:dc="http://purl.org/dc/elements/1.1/"
   xmlns:cc="http://creativecommons.org/ns#"
   xmlns:rdf="http://www.w3.org/1999/02/22-rdf-syntax-ns#"
   xmlns:svg="http://www.w3.org/2000/svg"
   xmlns="http://www.w3.org/2000/svg"
   xmlns:sodipodi="http://sodipodi.sourceforge.net/DTD/sodipodi-0.dtd"
   xmlns:inkscape="http://www.inkscape.org/namespaces/inkscape"
   width="200"
   height="42"
   viewBox="0 0 52.916665 11.1125"
   version="1.1"
   id="svg2765"
   inkscape:version="0.92.3 (2405546, 2018-03-11)"
   sodipodi:docname="yorkville-logo.svg">
  <defs
     id="defs2759" />
  <sodipodi:namedview
     id="base"
     pagecolor="#ffffff"
     bordercolor="#666666"
     borderopacity="1.0"
     inkscape:pageopacity="0.0"
     inkscape:pageshadow="2"
     inkscape:zoom="4"
     inkscape:cx="84.576515"
     inkscape:cy="38.288243"
     inkscape:document-units="px"
     inkscape:current-layer="layer1"
     showgrid="false"
     units="px"
     inkscape:window-width="3840"
     inkscape:window-height="2037"
     inkscape:window-x="0"
     inkscape:window-y="0"
     inkscape:window-maximized="1"
     inkscape:snap-bbox="true"
     inkscape:bbox-nodes="true">
    <inkscape:grid
       type="xygrid"
       id="grid3344" />
  </sodipodi:namedview>
  <metadata
     id="metadata2762">
    <rdf:RDF>
      <cc:Work
         rdf:about="">
        <dc:format>image/svg+xml</dc:format>
        <dc:type
           rdf:resource="http://purl.org/dc/dcmitype/StillImage" />
        <dc:title></dc:title>
      </cc:Work>
    </rdf:RDF>
  </metadata>
  <g
     inkscape:label="Layer 1"
     inkscape:groupmode="layer"
     id="layer1"
     transform="translate(0,-285.88749)">
    <path
       inkscape:connector-curvature="0"
       id="path3448"
       style="font-style:normal;font-variant:normal;font-weight:normal;font-stretch:normal;font-size:medium;line-height:1.25;font-family:'Baskerville Old Face';-inkscape-font-specification:'Baskerville Old Face';letter-spacing:0px;word-spacing:0px;fill:#0066ca;fill-opacity:1;stroke:none;stroke-width:0.29506192"
       d="m 2.3570378,293.82498 v -0.13255 q 0.3284869,-0.0173 0.5359524,-0.0922 0.2074654,-0.0749 0.3688274,-0.24205 0.1786508,-0.18441 0.242043,-0.46679 0.063392,-0.28239 0.063392,-0.87597 l 0.00576,-1.12377 q 0,-0.24204 -0.09797,-0.53595 -0.1094957,-0.34001 -0.4495085,-0.85291 L 1.532939,287.26101 1.2678443,286.8576 Q 0.97393494,286.41962 0.69155143,286.25826 0.54747822,286.17181 0.403405,286.13723 0.25933179,286.10266 0,286.09113 v -0.13255 h 3.7574295 v 0.13255 q -0.4783231,0.0288 -0.6108705,0.0864 -0.322724,0.13831 -0.322724,0.50137 0,0.13255 0.069155,0.29967 0.074918,0.16713 0.23628,0.4207 l 1.5617537,2.44348 1.3369994,-2.08618 0.1498362,-0.23628 q 0.2132283,-0.33425 0.2132283,-0.65698 0,-0.36882 -0.23628,-0.57053 -0.2362801,-0.2017 -0.6627368,-0.2017 v -0.13255 H 8.143018 v 0.13255 q -0.2996723,0.0346 -0.4610343,0.10373 -0.161362,0.0634 -0.328487,0.21323 -0.3918791,0.36883 -0.8702022,1.10072 l -1.3139477,2.0055 q -0.2362801,0.3573 -0.2881465,0.52443 -0.051866,0.16712 -0.051866,0.56476 v 1.41192 q 0,0.61664 0.057629,0.88749 0.063392,0.2651 0.2478059,0.45527 0.3169611,0.33425 0.9047798,0.33425 v 0.13255 z" />
    <path
       inkscape:connector-curvature="0"
       id="path3431"
       style="font-style:normal;font-variant:normal;font-weight:normal;font-stretch:normal;font-size:medium;line-height:1.25;font-family:'Baskerville Old Face';-inkscape-font-specification:'Baskerville Old Face';letter-spacing:0px;word-spacing:0px;fill:#0066ca;fill-opacity:1;stroke:none;stroke-width:0.22954249"
       d="m 6.8377275,290.56846 q 0,-0.75318 0.3227942,-1.39429 0.3227941,-0.64559 0.941483,-1.12529 0.4617749,-0.35418 0.995282,-0.54248 0.533507,-0.19278 1.0759803,-0.19278 0.690421,0 1.336009,0.30486 0.645589,0.30038 1.12978,0.85182 0.789052,0.89665 0.789052,2.03988 0,0.57386 -0.206229,1.10737 -0.20623,0.5335 -0.600756,0.97286 -0.484191,0.54696 -1.147713,0.84734 -0.659038,0.30037 -1.380841,0.30037 -0.7128374,0 -1.362909,-0.29141 -0.6500716,-0.29141 -1.1208131,-0.82492 -0.3721099,-0.41694 -0.5738563,-0.94596 -0.1972631,-0.53351 -0.1972631,-1.10737 z m 1.0849471,0.0673 q 0,1.30015 0.7083538,2.19231 0.3183109,0.39901 0.6724879,0.58283 0.3586601,0.17933 0.8249187,0.17933 0.470741,0 0.824918,-0.17933 0.35866,-0.17933 0.681454,-0.58283 0.708354,-0.89665 0.708354,-2.21024 0,-0.7218 -0.197263,-1.36291 -0.19278,-0.64559 -0.546957,-1.09391 -0.286928,-0.36763 -0.641105,-0.53351 -0.349693,-0.17036 -0.829401,-0.17036 -0.4752251,0 -0.8249187,0.16588 -0.3452105,0.16588 -0.6411051,0.53799 -0.3541769,0.44384 -0.5469568,1.08943 -0.1927798,0.64559 -0.1927798,1.38532 z" />
    <path
       inkscape:connector-curvature="0"
       id="path3433"
       style="font-style:normal;font-variant:normal;font-weight:normal;font-stretch:normal;font-size:medium;line-height:1.25;font-family:'Baskerville Old Face';-inkscape-font-specification:'Baskerville Old Face';letter-spacing:0px;word-spacing:0px;fill:#0066ca;fill-opacity:1;stroke:none;stroke-width:0.22954249"
       d="m 15.992529,290.59088 v 1.58707 q 0,0.45729 0.04932,0.68146 0.0538,0.21968 0.19278,0.36314 0.121048,0.12553 0.277962,0.1883 0.161397,0.0583 0.421426,0.0717 v 0.10311 h -2.864799 v -0.10311 q 0.260029,-0.0134 0.416943,-0.0717 0.161397,-0.0628 0.282445,-0.1883 0.143464,-0.14346 0.19278,-0.36314 0.04931,-0.21968 0.04931,-0.68146 v -3.30415 q 0,-0.46178 -0.04931,-0.68146 -0.04932,-0.21968 -0.19278,-0.36314 -0.121048,-0.13002 -0.282445,-0.1883 -0.161397,-0.0583 -0.416943,-0.0717 v -0.10312 h 2.160928 q 0.542474,0 0.712837,0.004 0.694904,0.0314 1.08943,0.18829 0.443842,0.17933 0.685938,0.53799 0.246579,0.35418 0.246579,0.82492 0,0.69939 -0.529024,1.12082 -0.161397,0.12553 -0.35866,0.20623 -0.19278,0.0807 -0.520057,0.15243 0.268995,0.11208 0.399009,0.23312 0.103115,0.0942 0.188297,0.23762 0.08518,0.13898 0.255545,0.49764 0.39901,0.82043 0.600756,1.20151 0.20623,0.37659 0.34521,0.54696 0.112082,0.13898 0.215196,0.19278 0.107599,0.0538 0.291412,0.0717 v 0.10311 h -1.48844 q -0.112081,-0.24658 -0.143464,-0.31382 l -0.313828,-0.71284 q -0.282445,-0.64111 -0.569373,-1.13426 -0.286928,-0.48868 -0.52454,-0.66801 -0.121048,-0.0897 -0.260029,-0.12553 -0.138981,-0.0403 -0.340727,-0.0403 z m 0,-0.0986 h 0.170363 q 0.555924,0 0.793536,-0.0628 0.242096,-0.0628 0.452808,-0.26002 0.470742,-0.44833 0.470742,-1.11185 0,-0.35418 -0.138981,-0.66352 -0.134498,-0.31383 -0.376593,-0.51558 -0.188297,-0.15243 -0.448325,-0.21071 -0.260029,-0.0628 -0.739737,-0.0628 h -0.183813 z" />
    <path
       inkscape:connector-curvature="0"
       id="path3435"
       style="font-style:normal;font-variant:normal;font-weight:normal;font-stretch:normal;font-size:medium;line-height:1.25;font-family:'Baskerville Old Face';-inkscape-font-specification:'Baskerville Old Face';letter-spacing:0px;word-spacing:0px;fill:#0066ca;fill-opacity:1;stroke:none;stroke-width:0.22954249"
       d="m 21.946288,290.46535 1.896416,-1.88297 q 0.282444,-0.27796 0.349693,-0.37659 0.07173,-0.10311 0.07173,-0.22416 0,-0.21968 -0.215196,-0.33176 -0.112081,-0.0538 -0.376593,-0.0807 v -0.10312 h 1.932282 v 0.10312 q -0.197263,0.0179 -0.331761,0.0673 -0.130014,0.0448 -0.286928,0.15691 -0.174847,0.12553 -0.600756,0.53351 l -1.452574,1.39429 2.06678,2.63615 0.255545,0.32728 q 0.282445,0.34969 0.587306,0.54696 0.183813,0.12104 0.322794,0.17484 0.138981,0.0493 0.349694,0.0762 v 0.10311 h -2.96343 v -0.10311 q 0.336244,-0.0269 0.484191,-0.11208 0.147948,-0.0852 0.147948,-0.25106 0,-0.17933 -0.183814,-0.4573 -0.08967,-0.13449 -0.336244,-0.46625 -0.246578,-0.33177 -0.416942,-0.538 l -1.008732,-1.25082 -0.291411,0.28693 v 1.48395 q 0,0.45729 0.04932,0.68146 0.0538,0.21968 0.192779,0.36314 0.121048,0.12553 0.277962,0.1883 0.161397,0.0583 0.421426,0.0717 v 0.10311 h -2.864798 v -0.10311 q 0.260028,-0.0134 0.416942,-0.0717 0.161397,-0.0628 0.282445,-0.1883 0.143464,-0.14346 0.19278,-0.36314 0.04932,-0.21968 0.04932,-0.68146 v -3.30415 q 0,-0.46178 -0.04932,-0.68146 -0.04932,-0.21968 -0.19278,-0.36314 -0.121048,-0.13002 -0.282445,-0.1883 -0.161397,-0.0583 -0.416942,-0.0717 v -0.10312 h 2.864798 v 0.10312 q -0.255546,0.0135 -0.416943,0.0717 -0.156913,0.0583 -0.282445,0.1883 -0.13898,0.14346 -0.192779,0.36762 -0.04932,0.21968 -0.04932,0.67698 z" />
    <path
       inkscape:connector-curvature="0"
       id="path3437"
       style="font-style:normal;font-variant:normal;font-weight:normal;font-stretch:normal;font-size:medium;line-height:1.25;font-family:'Baskerville Old Face';-inkscape-font-specification:'Baskerville Old Face';letter-spacing:0px;word-spacing:0px;fill:#0066ca;fill-opacity:1;stroke:none;stroke-width:0.22954249"
       d="m 26.160544,287.46605 h 2.958947 v 0.10312 q -0.336244,0.0314 -0.484191,0.10311 -0.138981,0.0673 -0.224163,0.21072 -0.08518,0.13898 -0.08518,0.30486 0,0.11656 0.02242,0.20623 0.02242,0.0897 0.134498,0.39004 l 1.327043,3.60902 1.286693,-3.16518 q 0.268995,-0.668 0.268995,-0.97286 0,-0.17037 -0.0538,-0.31831 -0.0538,-0.14795 -0.143464,-0.22865 -0.08967,-0.0762 -0.197263,-0.1076 -0.107598,-0.0314 -0.277962,-0.0314 v -0.10312 h 1.995048 v 0.10312 q -0.246579,0.0224 -0.430393,0.12105 -0.17933,0.0986 -0.34521,0.30037 -0.112081,0.14347 -0.237612,0.39453 -0.121048,0.24658 -0.336244,0.76664 l -1.838134,4.43393 h -0.188296 l -1.784335,-4.58188 q -0.349693,-0.90113 -0.560406,-1.14323 -0.134498,-0.15243 -0.331761,-0.21968 -0.19278,-0.0717 -0.475225,-0.0717 z" />
    <path
       inkscape:connector-curvature="0"
       id="path3439"
       style="font-style:normal;font-variant:normal;font-weight:normal;font-stretch:normal;font-size:medium;line-height:1.25;font-family:'Baskerville Old Face';-inkscape-font-specification:'Baskerville Old Face';letter-spacing:0px;word-spacing:0px;fill:#0066ca;fill-opacity:1;stroke:none;stroke-width:0.22954249"
       d="m 35.620208,287.46605 v 0.10312 q -0.255545,0.0135 -0.416943,0.0717 -0.156913,0.0583 -0.282444,0.1883 -0.174847,0.17933 -0.215197,0.49764 -0.0269,0.23761 -0.0269,0.54696 v 3.30415 q 0,0.37211 0.03587,0.58731 0.03587,0.21519 0.116565,0.34521 0.116564,0.17933 0.300377,0.26899 0.183814,0.0852 0.488675,0.10312 v 0.10311 H 32.75541 v -0.10311 q 0.260028,-0.0134 0.416942,-0.0717 0.161397,-0.0628 0.282445,-0.1883 0.143464,-0.14346 0.19278,-0.36314 0.04932,-0.21968 0.04932,-0.68146 v -3.30415 q 0,-0.46178 -0.04932,-0.68146 -0.04932,-0.21968 -0.19278,-0.36314 -0.121048,-0.13002 -0.282445,-0.1883 -0.161397,-0.0583 -0.416942,-0.0717 v -0.10312 z" />
    <path
       inkscape:connector-curvature="0"
       id="path3441"
       style="font-style:normal;font-variant:normal;font-weight:normal;font-stretch:normal;font-size:medium;line-height:1.25;font-family:'Baskerville Old Face';-inkscape-font-specification:'Baskerville Old Face';letter-spacing:0px;word-spacing:0px;fill:#0066ca;fill-opacity:1;stroke:none;stroke-width:0.22954249"
       d="m 36.055083,293.58569 v -0.10759 q 0.452808,0 0.699387,-0.25555 0.138981,-0.14346 0.188297,-0.36314 0.0538,-0.22417 0.0538,-0.68146 v -3.30415 q 0,-0.47523 -0.05828,-0.69939 -0.0538,-0.22865 -0.20623,-0.37211 -0.125531,-0.11657 -0.282445,-0.17037 -0.152431,-0.0538 -0.394526,-0.0628 v -0.10312 h 2.864798 v 0.10312 q -0.246579,0.0135 -0.403493,0.0673 -0.156914,0.0538 -0.277961,0.17036 -0.152431,0.14795 -0.20623,0.37211 -0.0538,0.22416 -0.0538,0.69491 v 2.58683 q 0,0.59627 0.03138,0.88769 0.03138,0.29141 0.121048,0.47522 0.156913,0.32279 0.466258,0.47523 0.309344,0.14794 0.820435,0.14794 0.533507,0 0.89665,-0.13898 0.367627,-0.14346 0.600756,-0.43936 0.156914,-0.20174 0.255546,-0.45729 0.103114,-0.25554 0.188296,-0.67249 l 0.107598,0.009 -0.05828,1.83813 z" />
    <path
       inkscape:connector-curvature="0"
       id="path3443"
       style="font-style:normal;font-variant:normal;font-weight:normal;font-stretch:normal;font-size:medium;line-height:1.25;font-family:'Baskerville Old Face';-inkscape-font-specification:'Baskerville Old Face';letter-spacing:0px;word-spacing:0px;fill:#0066ca;fill-opacity:1;stroke:none;stroke-width:0.22954249"
       d="m 41.650181,293.58569 v -0.10759 q 0.452809,0 0.699388,-0.25555 0.13898,-0.14346 0.188296,-0.36314 0.0538,-0.22417 0.0538,-0.68146 v -3.30415 q 0,-0.47523 -0.05828,-0.69939 -0.0538,-0.22865 -0.20623,-0.37211 -0.125531,-0.11657 -0.282444,-0.17037 -0.152431,-0.0538 -0.394527,-0.0628 v -0.10312 h 2.864799 v 0.10312 q -0.246579,0.0135 -0.403493,0.0673 -0.156914,0.0538 -0.277962,0.17036 -0.15243,0.14795 -0.206229,0.37211 -0.0538,0.22416 -0.0538,0.69491 v 2.58683 q 0,0.59627 0.03138,0.88769 0.03138,0.29141 0.121048,0.47522 0.156914,0.32279 0.466258,0.47523 0.309345,0.14794 0.820436,0.14794 0.533507,0 0.89665,-0.13898 0.367627,-0.14346 0.600756,-0.43936 0.156914,-0.20174 0.255545,-0.45729 0.103115,-0.25554 0.188297,-0.67249 l 0.107598,0.009 -0.05828,1.83813 z" />
    <path
       inkscape:connector-curvature="0"
       id="path3445"
       style="font-style:normal;font-variant:normal;font-weight:normal;font-stretch:normal;font-size:medium;line-height:1.25;font-family:'Baskerville Old Face';-inkscape-font-specification:'Baskerville Old Face';letter-spacing:0px;word-spacing:0px;fill:#0066ca;fill-opacity:1;stroke:none;stroke-width:0.22954249"
       d="m 52.064778,287.46605 0.07622,1.47948 -0.103115,0.004 q -0.05828,-0.37659 -0.192779,-0.62317 -0.134498,-0.24658 -0.390043,-0.43488 -0.210713,-0.15691 -0.497641,-0.21968 -0.286929,-0.0673 -0.762153,-0.0673 h -1.026665 v 2.68996 h 0.268995 q 0.407976,0 0.614206,-0.0538 0.206229,-0.0538 0.336244,-0.19278 0.125531,-0.13002 0.183813,-0.30486 0.06276,-0.17933 0.103115,-0.52454 l 0.103115,0.004 -0.01793,2.40302 h -0.103115 q -0.04035,-0.34521 -0.121048,-0.55592 -0.07621,-0.21071 -0.215196,-0.35866 -0.134498,-0.14347 -0.349694,-0.21071 -0.215196,-0.0673 -0.546957,-0.0673 h -0.255545 v 1.02666 q 0,0.61421 0.03138,0.89665 0.03138,0.27796 0.121048,0.46626 0.15243,0.32279 0.461775,0.47523 0.313827,0.14794 0.824918,0.14794 0.53799,0 0.901134,-0.1345 0.363143,-0.13898 0.591789,-0.4259 0.161397,-0.19278 0.260029,-0.43936 0.103114,-0.24658 0.188296,-0.65007 l 0.103115,0.004 -0.05828,1.78433 h -5.34852 v -0.10311 q 0.255545,-0.0134 0.412459,-0.0717 0.161397,-0.0583 0.286928,-0.1883 0.138981,-0.14346 0.188297,-0.36314 0.0538,-0.22417 0.0538,-0.68146 v -3.30415 q 0,-0.4573 -0.0538,-0.67698 -0.04932,-0.22416 -0.188297,-0.36762 -0.121048,-0.13002 -0.282445,-0.1883 -0.156914,-0.0583 -0.416942,-0.0717 v -0.10312 z" />
    <path
       inkscape:connector-curvature="0"
       id="path3410"
       style="font-style:normal;font-variant:normal;font-weight:normal;font-stretch:normal;font-size:medium;line-height:1.25;font-family:'Baskerville Old Face';-inkscape-font-specification:'Baskerville Old Face';letter-spacing:3.57187486px;word-spacing:0px;fill:#000000;fill-opacity:1;stroke:none;stroke-width:0.07557567"
       d="m 3.0598865,294.93347 v 0.034 q -0.084137,0.004 -0.1372761,0.0236 -0.053139,0.0192 -0.092993,0.062 -0.048711,0.0502 -0.064948,0.12399 -0.014761,0.0738 -0.014761,0.25389 v 0.83546 q 0,0.2037 0.014761,0.29522 0.016237,0.09 0.063472,0.1668 0.070852,0.11661 0.1741783,0.16975 0.1048022,0.0517 0.2627436,0.0517 0.1535131,0 0.2922653,-0.0458 0.1402283,-0.0472 0.2332218,-0.12989 0.057567,-0.0517 0.084137,-0.11219 0.028046,-0.0605 0.036902,-0.15351 0.0059,-0.0605 0.0059,-0.28636 V 295.397 q 0,-0.15204 -0.017713,-0.22437 -0.016237,-0.0723 -0.061996,-0.11956 -0.04133,-0.0428 -0.09447,-0.062 -0.051663,-0.0192 -0.1358001,-0.0236 v -0.034 h 0.6804763 v 0.034 q -0.084137,0.004 -0.1372761,0.0236 -0.051663,0.0192 -0.092994,0.062 -0.045759,0.0472 -0.063472,0.12104 -0.016237,0.0723 -0.016237,0.22289 v 0.93141 q 0,0.20665 -0.032474,0.30555 -0.030998,0.0974 -0.1254674,0.1786 -0.2155087,0.18599 -0.6155284,0.18599 -0.4177327,0 -0.6155284,-0.17565 -0.1284197,-0.11219 -0.1535131,-0.29522 -0.00886,-0.065 -0.00886,-0.2347 V 295.397 q 0,-0.15204 -0.016237,-0.22437 -0.016237,-0.0723 -0.063472,-0.11956 -0.039854,-0.0428 -0.092993,-0.062 -0.051663,-0.0192 -0.1372761,-0.0236 v -0.034 z" />
    <path
       inkscape:connector-curvature="0"
       id="path3412"
       style="font-style:normal;font-variant:normal;font-weight:normal;font-stretch:normal;font-size:medium;line-height:1.25;font-family:'Baskerville Old Face';-inkscape-font-specification:'Baskerville Old Face';letter-spacing:3.57187486px;word-spacing:0px;fill:#000000;fill-opacity:1;stroke:none;stroke-width:0.07557567"
       d="m 8.3587839,295.20065 v 1.28419 q 0,0.15204 0.016237,0.22437 0.017713,0.0723 0.063472,0.11956 0.041331,0.0428 0.092994,0.062 0.053139,0.0192 0.1372762,0.0236 v 0.034 H 7.988286 v -0.034 q 0.084137,-0.004 0.1358,-0.0236 0.053139,-0.0192 0.09447,-0.062 0.045759,-0.0472 0.061996,-0.11956 0.017713,-0.0738 0.017713,-0.22437 v -1.08935 q 0,-0.14909 -0.017713,-0.22141 -0.016237,-0.0738 -0.061996,-0.12104 -0.039854,-0.0428 -0.092994,-0.062 -0.051663,-0.0192 -0.1372761,-0.0236 v -0.034 h 0.5682936 l 1.198583,1.52923 v -1.06573 q 0,-0.15204 -0.017713,-0.22437 -0.016237,-0.0723 -0.061996,-0.11956 -0.04133,-0.0428 -0.09447,-0.062 -0.051663,-0.0192 -0.1358,-0.0236 v -0.034 H 10.12566 v 0.034 q -0.1476082,0 -0.2302691,0.0856 -0.045759,0.0472 -0.063472,0.12104 -0.016237,0.0723 -0.016237,0.22141 v 1.55284 h -0.066424 z" />
    <path
       inkscape:connector-curvature="0"
       id="path3414"
       style="font-style:normal;font-variant:normal;font-weight:normal;font-stretch:normal;font-size:medium;line-height:1.25;font-family:'Baskerville Old Face';-inkscape-font-specification:'Baskerville Old Face';letter-spacing:3.57187486px;word-spacing:0px;fill:#000000;fill-opacity:1;stroke:none;stroke-width:0.07557567"
       d="m 14.788363,294.93347 v 0.034 q -0.08414,0.004 -0.137276,0.0236 -0.05166,0.0192 -0.09299,0.062 -0.05757,0.059 -0.07085,0.16384 -0.0089,0.0782 -0.0089,0.18009 v 1.08787 q 0,0.12252 0.01181,0.19337 0.01181,0.0709 0.03838,0.11366 0.03838,0.059 0.0989,0.0886 0.06052,0.0281 0.160893,0.034 v 0.034 h -0.94322 v -0.034 q 0.08561,-0.004 0.137276,-0.0236 0.05314,-0.0207 0.09299,-0.062 0.04724,-0.0472 0.06347,-0.11956 0.01624,-0.0723 0.01624,-0.22437 v -1.08787 q 0,-0.15204 -0.01624,-0.22437 -0.01624,-0.0723 -0.06347,-0.11956 -0.03985,-0.0428 -0.09299,-0.062 -0.05314,-0.0192 -0.137276,-0.0236 v -0.034 z" />
    <path
       inkscape:connector-curvature="0"
       id="path3416"
       style="font-style:normal;font-variant:normal;font-weight:normal;font-stretch:normal;font-size:medium;line-height:1.25;font-family:'Baskerville Old Face';-inkscape-font-specification:'Baskerville Old Face';letter-spacing:3.57187486px;word-spacing:0px;fill:#000000;fill-opacity:1;stroke:none;stroke-width:0.07557567"
       d="m 18.380904,294.93347 h 0.974217 v 0.034 q -0.110706,0.0103 -0.159417,0.034 -0.04576,0.0222 -0.07381,0.0694 -0.02804,0.0458 -0.02804,0.10037 0,0.0384 0.0074,0.0679 0.0074,0.0295 0.04428,0.12842 l 0.436922,1.18825 0.423637,-1.04211 q 0.08856,-0.21994 0.08856,-0.32031 0,-0.0561 -0.01771,-0.10481 -0.01771,-0.0487 -0.04723,-0.0753 -0.02952,-0.0251 -0.06495,-0.0354 -0.03543,-0.0103 -0.09152,-0.0103 v -0.034 h 0.656859 v 0.034 q -0.08119,0.007 -0.141705,0.0399 -0.05904,0.0325 -0.113658,0.0989 -0.0369,0.0472 -0.07823,0.12989 -0.03985,0.0812 -0.110706,0.25241 l -0.605196,1.45985 h -0.062 l -0.587483,-1.50856 q -0.115135,-0.29669 -0.184511,-0.3764 -0.04428,-0.0502 -0.10923,-0.0723 -0.06347,-0.0236 -0.156465,-0.0236 z" />
    <path
       inkscape:connector-curvature="0"
       id="path3418"
       style="font-style:normal;font-variant:normal;font-weight:normal;font-stretch:normal;font-size:medium;line-height:1.25;font-family:'Baskerville Old Face';-inkscape-font-specification:'Baskerville Old Face';letter-spacing:3.57187486px;word-spacing:0px;fill:#000000;fill-opacity:1;stroke:none;stroke-width:0.07557567"
       d="m 25.710896,294.93347 0.02509,0.48711 -0.03395,0.001 q -0.01919,-0.12399 -0.06347,-0.20518 -0.04428,-0.0812 -0.128419,-0.14318 -0.06938,-0.0517 -0.163846,-0.0723 -0.09447,-0.0221 -0.250935,-0.0221 h -0.338024 v 0.88566 h 0.08856 q 0.134324,0 0.202224,-0.0177 0.0679,-0.0177 0.110707,-0.0635 0.04133,-0.0428 0.06052,-0.10037 0.02067,-0.0591 0.03395,-0.17271 l 0.03395,10e-4 -0.0059,0.79118 h -0.03395 q -0.01328,-0.11366 -0.03985,-0.18303 -0.02509,-0.0694 -0.07085,-0.11809 -0.04428,-0.0472 -0.115134,-0.0694 -0.07085,-0.0222 -0.180083,-0.0222 h -0.08414 v 0.33803 q 0,0.20222 0.01033,0.29522 0.01033,0.0915 0.03985,0.15351 0.05019,0.10628 0.152037,0.15646 0.103326,0.0487 0.2716,0.0487 0.177131,0 0.296694,-0.0443 0.119563,-0.0458 0.194843,-0.14023 0.05314,-0.0635 0.08561,-0.14465 0.03395,-0.0812 0.062,-0.21404 l 0.03395,10e-4 -0.01919,0.58748 h -1.760972 v -0.034 q 0.08414,-0.004 0.1358,-0.0236 0.05314,-0.0192 0.09447,-0.062 0.04576,-0.0472 0.062,-0.11956 0.01771,-0.0738 0.01771,-0.22437 v -1.08787 q 0,-0.15057 -0.01771,-0.22289 -0.01624,-0.0738 -0.062,-0.12104 -0.03985,-0.0428 -0.09299,-0.062 -0.05166,-0.0192 -0.137276,-0.0236 v -0.034 z" />
    <path
       inkscape:connector-curvature="0"
       id="path3420"
       style="font-style:normal;font-variant:normal;font-weight:normal;font-stretch:normal;font-size:medium;line-height:1.25;font-family:'Baskerville Old Face';-inkscape-font-specification:'Baskerville Old Face';letter-spacing:3.57187486px;word-spacing:0px;fill:#000000;fill-opacity:1;stroke:none;stroke-width:0.07557567"
       d="m 30.212706,295.96231 v 0.52253 q 0,0.15056 0.01624,0.22437 0.01771,0.0723 0.06347,0.11956 0.03985,0.0413 0.09152,0.062 0.05314,0.0192 0.138753,0.0236 v 0.034 h -0.94322 v -0.034 q 0.08561,-0.004 0.137276,-0.0236 0.05314,-0.0207 0.09299,-0.062 0.04724,-0.0472 0.06347,-0.11956 0.01624,-0.0723 0.01624,-0.22437 v -1.08787 q 0,-0.15204 -0.01624,-0.22437 -0.01624,-0.0723 -0.06347,-0.11956 -0.03985,-0.0428 -0.09299,-0.062 -0.05314,-0.0192 -0.137276,-0.0236 v -0.034 h 0.711474 q 0.178607,0 0.234698,10e-4 0.228793,0.0103 0.358689,0.062 0.146133,0.059 0.225841,0.17713 0.08118,0.11661 0.08118,0.2716 0,0.23027 -0.174178,0.36902 -0.05314,0.0413 -0.118087,0.0679 -0.06347,0.0266 -0.171226,0.0502 0.08856,0.0369 0.131372,0.0768 0.03395,0.031 0.06199,0.0782 0.02805,0.0458 0.08414,0.16385 0.131372,0.27012 0.197796,0.39559 0.0679,0.12399 0.113659,0.18008 0.0369,0.0458 0.07085,0.0635 0.03543,0.0177 0.09595,0.0236 v 0.034 h -0.490061 q -0.0369,-0.0812 -0.04724,-0.10332 l -0.103326,-0.2347 q -0.09299,-0.21108 -0.187463,-0.37345 -0.09447,-0.16089 -0.172703,-0.21994 -0.03985,-0.0295 -0.08561,-0.0413 -0.04576,-0.0133 -0.112182,-0.0133 z m 0,-0.0325 h 0.05609 q 0.183035,0 0.261267,-0.0207 0.07971,-0.0207 0.149085,-0.0856 0.154989,-0.14761 0.154989,-0.36607 0,-0.11662 -0.04576,-0.21847 -0.04428,-0.10332 -0.123991,-0.16975 -0.062,-0.0502 -0.147609,-0.0694 -0.08561,-0.0207 -0.243554,-0.0207 h -0.06052 z" />
    <path
       inkscape:connector-curvature="0"
       id="path3422"
       style="font-style:normal;font-variant:normal;font-weight:normal;font-stretch:normal;font-size:medium;line-height:1.25;font-family:'Baskerville Old Face';-inkscape-font-specification:'Baskerville Old Face';letter-spacing:3.57187486px;word-spacing:0px;fill:#000000;fill-opacity:1;stroke:none;stroke-width:0.07557567"
       d="m 35.183911,296.94391 0.0044,-0.60963 h 0.03395 q 0.062,0.23322 0.147609,0.36755 0.160894,0.24798 0.404448,0.24798 0.16975,0 0.280457,-0.11366 0.110706,-0.11366 0.110706,-0.28784 0,-0.0753 -0.02509,-0.15351 -0.02362,-0.0782 -0.06495,-0.13432 -0.04281,-0.0576 -0.121039,-0.11071 -0.07676,-0.0531 -0.236174,-0.13432 -0.140229,-0.0709 -0.215509,-0.11957 -0.07381,-0.0487 -0.119563,-0.0989 -0.126944,-0.13876 -0.126944,-0.33803 0,-0.12251 0.04871,-0.23617 0.05019,-0.11366 0.138752,-0.19485 0.156466,-0.14465 0.370498,-0.14465 0.06938,0 0.12842,0.0148 0.05904,0.0133 0.157941,0.0546 0.07381,0.0295 0.100374,0.0384 0.02657,0.007 0.04724,0.007 0.05166,0 0.06938,-0.0753 h 0.03395 l 0.01033,0.58601 h -0.03395 q -0.03986,-0.14023 -0.06938,-0.21403 -0.02805,-0.0753 -0.0679,-0.13876 -0.07233,-0.11513 -0.159418,-0.16975 -0.08709,-0.0561 -0.200748,-0.0561 -0.165322,0 -0.261267,0.11218 -0.03986,0.0458 -0.06347,0.10776 -0.02214,0.062 -0.02214,0.12399 0,0.24651 0.317359,0.39707 l 0.208128,0.10037 q 0.240602,0.11366 0.34688,0.25094 0.12104,0.15351 0.12104,0.35721 0,0.1358 -0.05462,0.25979 -0.07676,0.1727 -0.230269,0.26717 -0.153513,0.093 -0.361642,0.093 -0.190415,0 -0.366069,-0.0753 -0.09152,-0.0399 -0.109231,-0.0458 -0.01771,-0.006 -0.03985,-0.006 -0.07085,0 -0.09742,0.0709 z" />
    <path
       inkscape:connector-curvature="0"
       id="path3424"
       style="font-style:normal;font-variant:normal;font-weight:normal;font-stretch:normal;font-size:medium;line-height:1.25;font-family:'Baskerville Old Face';-inkscape-font-specification:'Baskerville Old Face';letter-spacing:3.57187486px;word-spacing:0px;fill:#000000;fill-opacity:1;stroke:none;stroke-width:0.07557567"
       d="m 41.191331,294.93347 v 0.034 q -0.08414,0.004 -0.137277,0.0236 -0.05166,0.0192 -0.09299,0.062 -0.05757,0.059 -0.07085,0.16384 -0.0089,0.0782 -0.0089,0.18009 v 1.08787 q 0,0.12252 0.01181,0.19337 0.01181,0.0709 0.03838,0.11366 0.03838,0.059 0.0989,0.0886 0.06052,0.0281 0.160894,0.034 v 0.034 h -0.94322 v -0.034 q 0.08561,-0.004 0.137276,-0.0236 0.05314,-0.0207 0.09299,-0.062 0.04724,-0.0472 0.06347,-0.11956 0.01624,-0.0723 0.01624,-0.22437 v -1.08787 q 0,-0.15204 -0.01624,-0.22437 -0.01624,-0.0723 -0.06347,-0.11956 -0.03985,-0.0428 -0.09299,-0.062 -0.05314,-0.0192 -0.137276,-0.0236 v -0.034 z" />
    <path
       inkscape:connector-curvature="0"
       id="path3426"
       style="font-style:normal;font-variant:normal;font-weight:normal;font-stretch:normal;font-size:medium;line-height:1.25;font-family:'Baskerville Old Face';-inkscape-font-specification:'Baskerville Old Face';letter-spacing:3.57187486px;word-spacing:0px;fill:#000000;fill-opacity:1;stroke:none;stroke-width:0.07557567"
       d="m 45.703474,294.97923 q -0.09299,0 -0.199272,0.006 -0.227318,0.0118 -0.3395,0.0576 -0.110707,0.0458 -0.183035,0.15795 -0.06642,0.10332 -0.10185,0.28045 l -0.03395,-0.003 0.02657,-0.54468 h 1.997147 l 0.02657,0.54468 -0.03395,0.003 q -0.03985,-0.20517 -0.125467,-0.30998 -0.08414,-0.10627 -0.246507,-0.15203 -0.137276,-0.0399 -0.464967,-0.0399 v 1.50561 q 0,0.15056 0.01624,0.22437 0.01771,0.0723 0.06347,0.11956 0.04133,0.0428 0.09299,0.062 0.05314,0.0192 0.137276,0.0236 v 0.034 h -0.94322 v -0.034 q 0.08561,-0.004 0.137276,-0.0236 0.05314,-0.0192 0.09447,-0.062 0.04576,-0.0472 0.062,-0.11956 0.01771,-0.0723 0.01771,-0.22437 z" />
    <path
       inkscape:connector-curvature="0"
       id="path3428"
       style="font-style:normal;font-variant:normal;font-weight:normal;font-stretch:normal;font-size:medium;line-height:1.25;font-family:'Baskerville Old Face';-inkscape-font-specification:'Baskerville Old Face';letter-spacing:3.57187486px;word-spacing:0px;fill:#000000;fill-opacity:1;stroke:none;stroke-width:0.07557567"
       d="m 51.037798,296.94833 v -0.034 q 0.08414,-0.004 0.137276,-0.0236 0.05314,-0.0192 0.09447,-0.062 0.04576,-0.0472 0.062,-0.11956 0.01624,-0.0723 0.01624,-0.22437 l 0.0015,-0.28783 q 0,-0.062 -0.02509,-0.13728 -0.02804,-0.0871 -0.115135,-0.21846 l -0.382306,-0.5742 -0.0679,-0.10333 q -0.07528,-0.11218 -0.147609,-0.15351 -0.0369,-0.0221 -0.0738,-0.031 -0.0369,-0.009 -0.103326,-0.0118 v -0.034 h 0.962409 v 0.034 q -0.122516,0.007 -0.156466,0.0222 -0.08266,0.0354 -0.08266,0.12842 0,0.034 0.01771,0.0768 0.01919,0.0428 0.06052,0.10776 l 0.40002,0.62586 0.342452,-0.53435 0.03838,-0.0605 q 0.05461,-0.0856 0.05461,-0.16827 0,-0.0945 -0.06052,-0.14613 -0.06052,-0.0517 -0.16975,-0.0517 v -0.034 h 0.679 v 0.034 q -0.07676,0.009 -0.118087,0.0266 -0.04133,0.0162 -0.08414,0.0546 -0.100374,0.0945 -0.222889,0.28193 l -0.336548,0.51368 q -0.06052,0.0915 -0.0738,0.13432 -0.01329,0.0428 -0.01329,0.14466 v 0.36164 q 0,0.15794 0.01476,0.22732 0.01624,0.0679 0.06347,0.11661 0.08119,0.0856 0.231746,0.0856 v 0.034 z" />
  </g>
</svg>
