<svg width="385" height="385" version="1.1" viewBox="0 0 101.9 101.9" xmlns="http://www.w3.org/2000/svg"><g transform="translate(0 -195.1)"><path d="m50.93 195.1a50.93 50.93 0 0 0-50.93 50.93 50.93 50.93 0 0 0 50.93 50.93 50.93 50.93 0 0 0 50.93-50.93 50.93 50.93 0 0 0-50.93-50.93zm0 0.9565a49.98 49.98 0 0 1 49.98 49.98 49.98 49.98 0 0 1-49.98 49.98 49.98 49.98 0 0 1-49.98-49.98 49.98 49.98 0 0 1 49.98-49.98zm0 0.9565a49.02 49.02 0 0 0-49.02 49.02 49.02 49.02 0 0 0 49.02 49.02 49.02 49.02 0 0 0 49.02-49.02 49.02 49.02 0 0 0-49.02-49.02zm0 0.4782a48.54 48.54 0 0 1 48.54 48.54 48.54 48.54 0 0 1-48.54 48.54 48.54 48.54 0 0 1-48.54-48.54 48.54 48.54 0 0 1 48.54-48.54zm2.904 1.497-0.0108 0.0887c0.1484 0.0262 0.2652 0.0617 0.3512 0.1065 0.0886 0.045 0.163 0.1091 0.2232 0.1924 0.0721 0.0926 0.1148 0.2038 0.1275 0.3334 0.0127 0.1297 2e-3 0.327-0.0308 0.5922l-0.291 2.344c-0.0368 0.2961-0.0547 0.5017-0.0532 0.617 4e-3 0.3247 0.1062 0.5989 0.3059 0.8224 0.307 0.3493 0.8247 0.5689 1.553 0.6595 0.6978 0.0867 1.255-8e-3 1.671-0.2863 0.1824-0.1211 0.311-0.2632 0.3862-0.4264 0.0781-0.1655 0.1397-0.4288 0.1845-0.7893l0.3026-2.437c0.0326-0.2626 0.0708-0.4551 0.1149-0.5777 0.0469-0.1249 0.1154-0.2236 0.2055-0.2961 0.0813-0.0657 0.1691-0.1099 0.2634-0.1322 0.0968-0.022 0.2194-0.0277 0.3671-0.0173l0.0107-0.0887-1.78-0.2209-0.0112 0.0888c0.1458 0.026 0.262 0.0614 0.3479 0.106 0.0886 0.045 0.1642 0.1093 0.227 0.1929 0.0696 0.0923 0.1106 0.2033 0.1233 0.333 0.0152 0.13 6e-3 0.3275-0.0267 0.5927l-0.2681 2.159c-0.049 0.3939-0.0854 0.643-0.1088 0.7472-0.0356 0.1603-0.0841 0.29-0.1462 0.3895-0.0595 0.0998-0.1452 0.1886-0.2569 0.2662-0.1801 0.124-0.3976 0.2123-0.6524 0.2643-0.2519 0.0498-0.5117 0.058-0.7795 0.0248-0.2755-0.0342-0.499-0.1081-0.6706-0.2209-0.1687-0.1151-0.3024-0.2819-0.4007-0.5007-0.0658-0.1441-0.1028-0.2962-0.1116-0.4567-6e-3 -0.1628 0.0128-0.4223 0.057-0.7776l0.2718-2.186c0.039-0.3141 0.0793-0.5339 0.121-0.6594 0.0443-0.1252 0.1143-0.2266 0.2102-0.3036 0.0788-0.0661 0.167-0.1102 0.2639-0.1322 0.0969-0.022 0.2189-0.0273 0.3666-0.0168l0.0112-0.0892zm-10.01 0.4965-4.107 0.8 0.0168 0.0878c0.1492-0.0211 0.2715-0.0237 0.3671-8e-3 0.0981 0.0153 0.1891 0.0531 0.2723 0.1135 0.0948 0.0661 0.1686 0.1602 0.2214 0.2821 0.0549 0.1188 0.1073 0.3081 0.1578 0.5679l0.5488 2.815c0.0506 0.2598 0.073 0.4561 0.0672 0.5894-4e-3 0.1302-0.0373 0.2441-0.1004 0.3409-0.0569 0.0877-0.1282 0.1568-0.2134 0.2078-0.0827 0.0504-0.1958 0.0939-0.3395 0.1298l0.0172 0.0877 4.557-0.8878-0.2461-1.53-0.0888 0.0135c-4e-3 0.2386-0.0215 0.4337-0.0528 0.5852-0.0287 0.151-0.0782 0.2902-0.1485 0.4175-0.0981 0.1883-0.2425 0.3418-0.4334 0.461-0.1914 0.1166-0.4402 0.2048-0.7458 0.2643-0.2903 0.0566-0.5325 0.0601-0.7272 0.0108-0.1926-0.0524-0.3503-0.1618-0.4726-0.3283-0.0718-0.097-0.1317-0.2229-0.1803-0.3774-0.0491-0.157-0.1077-0.41-0.1756-0.7589l-0.1705-0.8748 0.2176-0.042c0.1885-0.0367 0.3476-0.048 0.4773-0.0336s0.2407 0.0548 0.333 0.1214c0.0953 0.0687 0.1762 0.1587 0.2429 0.2699 0.0691 0.1108 0.1346 0.2618 0.1957 0.4535l0.0877-0.0168-0.3834-2.051-0.0887 0.0131c0.0153 0.2006 0.0149 0.3554-1e-3 0.4642-0.0138 0.1058-0.0491 0.2028-0.106 0.2905-0.0585 0.0933-0.1433 0.1666-0.2545 0.22-0.1112 0.0534-0.2824 0.1024-0.5142 0.1476l-0.2293 0.0448-0.4465-2.292 0.8747-0.1705c0.27-0.0525 0.4904-0.0756 0.6608-0.0691 0.17 4e-3 0.3234 0.0388 0.4605 0.1046 0.166 0.0787 0.3008 0.1807 0.4044 0.3059 0.1037 0.1252 0.1928 0.2918 0.2676 0.4992l0.0868-0.0211zm17.31 0.5418-0.0248 0.0864c0.1426 0.0487 0.253 0.1014 0.3311 0.1588 0.0806 0.058 0.1443 0.1331 0.191 0.2246 0.0546 0.1019 0.0777 0.2191 0.0696 0.3517-5e-3 0.1308-0.043 0.3224-0.1149 0.5744l-0.7879 2.762c-0.0726 0.2545-0.1418 0.44-0.2074 0.5562-0.0623 0.1144-0.1432 0.2005-0.2433 0.2583-0.0905 0.0525-0.1853 0.0819-0.2844 0.0887-0.0966 7e-3 -0.2171-5e-3 -0.3615-0.0383l-0.0243 0.0859 1.725 0.4922 0.0243-0.0859c-0.1401-0.048-0.2501-0.1012-0.3307-0.1593-0.0781-0.0573-0.1418-0.1324-0.191-0.2246-0.0546-0.1019-0.0796-0.2181-0.0747-0.3489 7e-3 -0.1301 0.0482-0.3235 0.1214-0.5805l0.9284-3.256 2.262 5.437 0.1686 0.0476 1.123-3.937c0.0719-0.252 0.139-0.4353 0.2013-0.5497 0.0655-0.1162 0.1484-0.2033 0.2485-0.2611 0.181-0.1049 0.3959-0.1216 0.6454-0.0504l0.0248-0.0864-1.725-0.4918-0.0248 0.0859c0.1401 0.048 0.2493 0.101 0.3274 0.1583 0.0805 0.058 0.1455 0.1333 0.1948 0.2256 0.0546 0.1019 0.0779 0.2178 0.0705 0.3479-5e-3 0.1308-0.0439 0.3244-0.1172 0.5814l-0.7706 2.702-1.934-4.744zm-12.05 0.4848c-0.2696 0.0109-0.5021 0.1072-0.6973 0.2891-0.1202 0.1113-0.211 0.2439-0.2723 0.397-0.0615 0.1505-0.0887 0.3058-0.0822 0.4666 0.0126 0.3085 0.1305 0.5676 0.3545 0.7767 0.224 0.209 0.4867 0.3073 0.7874 0.2952 0.3007-0.0122 0.5528-0.1314 0.7566-0.3577 0.2063-0.2265 0.3034-0.4927 0.291-0.7986-0.0125-0.3085-0.1294-0.5664-0.3507-0.7729-0.2214-0.2092-0.4836-0.3075-0.787-0.2952zm-12.75 0.8005-2.359 0.7865 0.028 0.0849c0.1346-0.0395 0.2488-0.0583 0.3423-0.0565 0.096 8.2e-4 0.189 0.0215 0.2793 0.0625 0.11 0.0509 0.2004 0.1342 0.2718 0.2499 0.073 0.1124 0.1531 0.299 0.2401 0.56l0.907 2.721c0.0837 0.2511 0.1314 0.4429 0.1429 0.5758 0.0131 0.1296-5e-3 0.2465-0.0556 0.3507-0.0887 0.1854-0.2572 0.3197-0.5058 0.4026l0.0295 0.0887 4.409-1.47-0.4568-1.53-0.0911 0.022c0.0296 0.2445 0.0398 0.4466 0.0299 0.6057-7e-3 0.1584-0.0358 0.307-0.085 0.4465-0.0738 0.2051-0.1985 0.3808-0.3741 0.5268-0.174 0.1428-0.4076 0.2629-0.7006 0.3606-0.2806 0.0935-0.5195 0.1278-0.7164 0.1032-0.1977-0.0271-0.369-0.1149-0.5142-0.2634-0.0829-0.0845-0.1597-0.2035-0.2302-0.3578-0.0706-0.1542-0.1604-0.3951-0.2695-0.7225l-0.7099-2.131c-0.0861-0.2585-0.1352-0.4541-0.1466-0.587-0.0115-0.1329 0.0111-0.2538 0.0677-0.3629 0.0451-0.0861 0.1058-0.1584 0.1821-0.2167 0.0763-0.0582 0.1809-0.1137 0.3138-0.1663zm31.6 0.8388-0.0345 0.0827c0.1335 0.0641 0.2373 0.1296 0.3106 0.1966 0.0732 0.0671 0.1273 0.1488 0.163 0.2452 0.0447 0.1086 0.0562 0.2271 0.0336 0.3554s-0.0854 0.3161-0.1882 0.5628l-1.103 2.648c-0.1028 0.2467-0.1919 0.4232-0.2671 0.5296-0.0753 0.1064-0.1674 0.1818-0.276 0.2265-0.0926 0.0401-0.1889 0.0589-0.2891 0.0565-0.0968-4e-3 -0.2158-0.0311-0.3577-0.0817l-0.0345 0.0827 2.295 0.9565 0.0345-0.0827c-0.1589-0.0774-0.278-0.1592-0.3573-0.2456-0.0783-0.0888-0.1285-0.194-0.1509-0.3157-0.0142-0.0874-6e-3 -0.1928 0.022-0.3157 0.0287-0.1229 0.0844-0.2836 0.1672-0.4824l1.104-2.648c0.0689-0.1652 0.1368-0.3082 0.2041-0.4292 0.0924-0.1611 0.2053-0.27 0.3386-0.3269 0.096-0.0413 0.1923-0.0601 0.2891-0.0565 0.0992 5e-3 0.2187 0.032 0.3582 0.0817l0.0341-0.0827zm3.348 1.367-0.0435 0.0785c0.143 0.0792 0.2532 0.1637 0.3307 0.2541 0.081 0.0894 0.1344 0.1915 0.1597 0.3064 0.0388 0.1817 0.0201 0.5498-0.0556 1.104l-0.5721 4.23 0.1429 0.0794 3.261-2.594c0.2548-0.2029 0.4478-0.35 0.5782-0.4409 0.134-0.0919 0.2491-0.1587 0.3461-0.1999 0.1406-0.0556 0.2701-0.083 0.3886-0.0827 0.1207 2e-3 0.2467 0.0314 0.3778 0.0892l0.0435-0.0785-1.515-0.8392-0.0435 0.0785c0.0862 0.0477 0.1523 0.0945 0.198 0.1406 0.0456 0.0461 0.0802 0.1011 0.1042 0.1649 0.0228 0.066 0.0274 0.144 0.0131 0.234-0.0143 0.09-0.0452 0.1781-0.093 0.2643-0.0855 0.1543-0.2902 0.3631-0.6137 0.6258l-2.309 1.862 0.5105-3.299c0.0275-0.1835 0.0478-0.3014 0.0616-0.3531s0.0373-0.1068 0.07-0.1658c0.0465-0.0841 0.1108-0.1492 0.1929-0.1957 0.0833-0.0486 0.1695-0.0707 0.2587-0.0659 0.095 5e-3 0.232 0.0473 0.411 0.1256l0.0435-0.0784zm-40.53 0.0243-2.24 1.08 0.0392 0.0803c0.1285-0.0562 0.2391-0.0892 0.332-0.0995 0.0953-0.0114 0.1902-3e-3 0.2849 0.0267 0.1155 0.0365 0.2162 0.1078 0.3017 0.2134 0.0867 0.1022 0.1898 0.2772 0.3092 0.525l1.246 2.584c0.1149 0.2384 0.1861 0.4226 0.2144 0.553 0.0295 0.1269 0.0261 0.2452-0.0103 0.3549-0.0643 0.1952-0.2146 0.3495-0.4507 0.4633l0.0407 0.084 4.186-2.017-0.6468-1.459-0.0878 0.0332c0.0604 0.2388 0.096 0.4377 0.1065 0.5969 0.0128 0.158 4e-3 0.3093-0.0276 0.454-0.0472 0.2128-0.1489 0.4031-0.3045 0.5702-0.1544 0.1637-0.3706 0.3124-0.6487 0.4465-0.2664 0.1284-0.4988 0.1932-0.6973 0.1938-0.1996-2e-3 -0.3807-0.0673-0.5436-0.1962-0.0929-0.0733-0.1841-0.182-0.2737-0.326-0.0896-0.144-0.2093-0.3715-0.3591-0.6823l-0.9752-2.023c-0.1183-0.2454-0.1917-0.4333-0.22-0.5637-0.0283-0.1304-0.0213-0.2535 0.0211-0.369 0.0338-0.0912 0.0849-0.1702 0.1532-0.2377 0.0683-0.0675 0.1653-0.1361 0.2905-0.205zm-3.45 1.8-2.117 1.305 0.0472 0.0766c0.13-0.071 0.2433-0.117 0.3405-0.1373 0.0972-0.0203 0.1956-0.0165 0.2947 0.0108 0.1142 0.0271 0.2168 0.087 0.3078 0.1803 0.091 0.0932 0.2067 0.2536 0.347 0.481l1.505 2.442c0.1402 0.2275 0.2317 0.4031 0.2741 0.5263 0.0424 0.1232 0.05 0.2416 0.0229 0.3559-0.0215 0.0986-0.0624 0.1881-0.1228 0.2681-0.0596 0.0764-0.1515 0.1572-0.2756 0.2428l0.0472 0.0761 2.117-1.305-0.0467-0.0761c-0.1556 0.0838-0.2918 0.1328-0.4082 0.1466-0.1178 0.0117-0.2328-9e-3 -0.3447-0.0621-0.0793-0.0395-0.1603-0.1066-0.2433-0.2018-0.083-0.0951-0.1808-0.2347-0.2938-0.418l-1.506-2.441c-0.0939-0.1524-0.1704-0.2914-0.2293-0.4166-0.0768-0.1691-0.0994-0.3242-0.0677-0.4656 0.0224-0.1022 0.0637-0.1917 0.1233-0.2681 0.0618-0.0777 0.1533-0.1586 0.2751-0.2429zm23.63 0.7575a39.93 39.93 0 0 0-39.93 39.93 39.93 39.93 0 0 0 39.93 39.93 39.93 39.93 0 0 0 39.93-39.93 39.93 39.93 0 0 0-39.93-39.93zm0 0.4782a39.45 39.45 0 0 1 39.45 39.45 39.45 39.45 0 0 1-39.45 39.45 39.45 39.45 0 0 1-39.45-39.45 39.45 39.45 0 0 1 39.45-39.45zm26.35 0.4063-0.0537 0.0715c0.1158 0.0964 0.2002 0.1852 0.2527 0.2667 0.0546 0.083 0.0876 0.1757 0.0985 0.2779 0.0148 0.1147-5e-3 0.2326-0.0607 0.3535-0.0512 0.1204-0.1562 0.2864-0.3148 0.4983l-1.719 2.296c-0.1586 0.2119-0.2892 0.3604-0.3918 0.4455-0.099 0.0847-0.2058 0.1363-0.3199 0.1546-0.1032 0.0167-0.202 0.0103-0.297-0.0187-0.0929-0.0274-0.2011-0.082-0.3241-0.1644l-0.0537 0.0715 3.717 2.782 0.9686-1.21-0.0691-0.0565c-0.1794 0.1574-0.3356 0.275-0.4689 0.3535-0.1312 0.0801-0.268 0.1367-0.4096 0.17-0.2054 0.0537-0.4164 0.0499-0.6328-0.0117-0.2149-0.0636-0.4471-0.1889-0.6963-0.3755-0.2368-0.1772-0.4019-0.3546-0.496-0.5319-0.0905-0.1779-0.1151-0.3678-0.0738-0.5702 0.0239-0.1183 0.0765-0.2475 0.1583-0.3872 0.0834-0.1417 0.2316-0.3548 0.4446-0.6394l0.5343-0.7136 0.1775 0.1331c0.1537 0.1151 0.2688 0.2254 0.3451 0.3311 0.0764 0.1058 0.121 0.2152 0.1336 0.3283 0.0131 0.1167 7.9e-4 0.2374-0.0369 0.3615-0.0357 0.1256-0.104 0.2754-0.205 0.4493l0.0715 0.0537 1.262-1.661-0.0691-0.0569c-0.1384 0.1459-0.2534 0.2497-0.3447 0.311-0.0877 0.0608-0.183 0.0996-0.2863 0.1163-0.1084 0.0193-0.2197 5e-3 -0.3339-0.0411-0.1142-0.0465-0.2659-0.1406-0.4549-0.2821l-0.1868-0.1396 1.399-1.87 0.7136 0.5338c0.2202 0.1648 0.385 0.3125 0.4946 0.4432 0.1112 0.1286 0.1884 0.2657 0.2316 0.4114 0.053 0.1759 0.068 0.3444 0.0448 0.5053-0.0232 0.1609-0.0865 0.3386-0.1901 0.5334l0.0737 0.0504 0.7164-1.068zm-53.07 0.2326-1.366 1.065 0.0551 0.0705c0.0777-0.0606 0.1466-0.1026 0.2069-0.1266 0.0603-0.0241 0.1248-0.0348 0.1929-0.0317 0.0697 5e-3 0.1428 0.0315 0.22 0.0799 0.0772 0.0483 0.1462 0.1114 0.2069 0.1892 0.1085 0.1391 0.2203 0.4088 0.3353 0.8094l0.8094 2.854-2.835-1.762c-0.1581-0.0972-0.2582-0.1623-0.3003-0.1952-0.0421-0.033-0.0841-0.0762-0.1256-0.1294-0.059-0.0757-0.094-0.1603-0.1046-0.2541-0.0122-0.0958 2e-3 -0.1837 0.0411-0.2639 0.0419-0.0854 0.1342-0.1952 0.2765-0.3293l-0.0551-0.0705-2.026 1.58 0.0551 0.0705c0.1289-0.1005 0.2503-0.1686 0.3638-0.2046 0.114-0.0395 0.2286-0.0483 0.3442-0.0266 0.1823 0.0355 0.5135 0.1966 0.9938 0.4834l3.668 2.183 0.1289-0.1004-1.109-4.016c-0.0869-0.3139-0.1468-0.5487-0.1793-0.7043-0.0321-0.1592-0.0482-0.2916-0.0481-0.397 4e-3 -0.1511 0.0295-0.2811 0.0761-0.39 0.0488-0.1104 0.1252-0.2144 0.2298-0.3124zm57.94 3.535-0.0626 0.064c0.1001 0.1092 0.1718 0.2085 0.2148 0.298 0.043 0.0895 0.0633 0.1858 0.0607 0.2886 8e-4 0.1174-0.0326 0.2312-0.1013 0.3419-0.0687 0.1107-0.1967 0.2618-0.3839 0.4525l-2.009 2.047c-0.1872 0.1907-0.3357 0.3216-0.4451 0.3923-0.1094 0.0707-0.2226 0.1067-0.34 0.1079-0.1009 3e-3 -0.1974-0.0156-0.2896-0.0551-0.0885-0.0395-0.1893-0.1094-0.3022-0.2092l-0.0625 0.064 1.775 1.742 0.0625-0.064c-0.102-0.111-0.1746-0.2113-0.2176-0.3008-0.0394-0.0896-0.0584-0.1849-0.0575-0.2858 7.9e-4 -0.1156 0.0345-0.2293 0.1014-0.3419 0.0705-0.1126 0.1985-0.2637 0.3839-0.4526l0.9649-0.9831 0.1359 0.1336c0.0833 0.0818 0.1458 0.1591 0.1868 0.2321 0.0428 0.0711 0.0709 0.1498 0.0845 0.2359 0.0254 0.1704-2e-3 0.4146-0.0813 0.7328-0.0814 0.32-0.1935 0.6696-0.3367 1.049l-0.2391 0.6324c-0.0143 0.0405-0.0482 0.1348-0.1018 0.2821l0.9224 0.9046 0.0625-0.0635c-0.0687-0.082-0.1142-0.156-0.1368-0.2218-0.0208-0.064-0.0264-0.1475-0.0164-0.2503 0.0117-0.1267 0.0512-0.3096 0.1186-0.5488 0.0711-0.2392 0.1909-0.609 0.3587-1.11 0.075-0.2172 0.1232-0.3718 0.1443-0.4638 0.023-0.0938 0.032-0.1808 0.0276-0.2615-4e-3 -0.1027-0.0399-0.2318-0.1056-0.3872 0.1643 0.1031 0.3028 0.1771 0.4152 0.2218 0.1142 0.0466 0.2299 0.0765 0.3475 0.0901 0.3893 0.0404 0.7257-0.0838 1.009-0.3727 0.1908-0.1944 0.3072-0.4151 0.3489-0.6613 0.0454-0.2463 0.0126-0.4961-0.0981-0.75-0.0994-0.2247-0.2861-0.4844-0.5604-0.779-0.0686-0.071-0.2149-0.2163-0.439-0.4362zm-41.16 0.7248v9e-4c-2.699 1.39-2.92 3.161-2.424 5.505-1.058 0.4491-2.295 1.054-3.621 1.849 1.233-1.576 1.762-3.331 0.5151-5.229-2.422 1.839-2.366 3.627-1.492 5.842-1.035 0.676-2.106 1.469-3.178 2.395 0.9418-1.786 1.144-3.629-0.4217-5.32-2.15 2.282-1.799 4.091-0.5418 6.192-0.9218 0.8711-1.834 1.84-2.71 2.93 0.6055-1.944 0.4619-3.81-1.397-5.213-1.745 2.673-1.072 4.425 0.5614 6.304-0.7345 1.007-1.436 2.103-2.088 3.294 0.1988-2.037-0.3334-3.845-2.449-4.876-1.221 3.013-0.2227 4.644 1.763 6.204-0.4271 0.8774-0.8275 1.802-1.195 2.777-0.1232 0.3268-0.2389 0.6556-0.3512 0.9854-0.1185-2.175-0.9587-3.992-3.347-4.705-0.7502 3.325 0.5741 4.83 2.907 6.103-0.3377 1.166-0.6064 2.349-0.8028 3.543-0.5272-2.034-1.688-3.589-4.101-3.871-0.1636 3.404 1.381 4.682 3.876 5.54-0.1184 1.111-0.174 2.231-0.1635 3.357-0.9059-1.747-2.319-2.921-4.632-2.775 0.444 3.368 2.158 4.394 4.724 4.817 0.0829 1.028 0.2196 2.059 0.4166 3.091-1.241-1.48-2.854-2.305-5.064-1.705 1.108 3.2 2.978 3.894 5.548 3.815 0.2805 1.044 0.6241 2.086 1.029 3.125-1.499-1.471-3.311-2.198-5.577-1.25 1.597 3.188 3.657 3.58 6.365 3.095 0.4808 1.034 1.023 2.064 1.635 3.085-1.8-1.278-3.794-1.737-5.96-0.3554 2.183 2.957 4.345 2.98 7.013 2.003 0.2434 0.3597 0.4931 0.7187 0.7538 1.076 0.3598 0.493 0.7274 0.963 1.101 1.416-1.957-0.8232-3.939-0.8208-5.758 0.8953 2.687 2.484 4.815 2.162 7.231 0.7514 0.6709 0.6923 1.362 1.331 2.072 1.922-1.964-0.3168-3.789 0.1373-5.171 2.075 3.084 1.896 5.11 1.226 7.181-0.5604 0.8829 0.6013 1.791 1.143 2.724 1.633-2.152-0.0535-4.027 0.686-5.135 2.977 3.514 1.411 5.447 0.3027 7.261-1.962 1.048 0.4534 2.126 0.8512 3.228 1.213-2.409 0.1508-4.416 1.12-5.257 3.78 3.819 0.9255 5.589-0.5597 7.101-3.212 0.4098 0.1166 0.8228 0.2293 1.239 0.3376 1.89 0.492 3.574 1.156 5.029 1.854-2.649 1.47-3.936 2.796-3.936 2.796l1.088 0.9724s1.589-1.461 4.357-2.992c2.768 1.531 4.357 2.992 4.357 2.992l1.088-0.9724s-1.287-1.326-3.936-2.796c1.455-0.6981 3.139-1.362 5.029-1.854 0.4162-0.1083 0.8292-0.2211 1.239-0.3376 1.512 2.652 3.282 4.138 7.101 3.212-0.8405-2.66-2.848-3.629-5.257-3.78 1.101-0.3616 2.179-0.7595 3.228-1.213 1.814 2.265 3.747 3.374 7.261 1.962-1.107-2.291-2.982-3.031-5.135-2.977 0.933-0.4898 1.841-1.031 2.724-1.633 2.071 1.787 4.097 2.456 7.181 0.5604-1.382-1.938-3.207-2.392-5.171-2.075 0.7098-0.5906 1.401-1.23 2.072-1.922 2.415 1.411 4.544 1.733 7.231-0.7514-1.819-1.716-3.801-1.718-5.758-0.8953 0.3739-0.4526 0.7415-0.9225 1.101-1.416 0.2607-0.3573 0.5104-0.7163 0.7538-1.076 2.668 0.9771 4.83 0.9536 7.013-2.003-2.166-1.382-4.16-0.9226-5.96 0.3554 0.6124-1.022 1.154-2.051 1.635-3.085 2.708 0.4852 4.768 0.0935 6.365-3.095-2.267-0.948-4.078-0.221-5.577 1.25 0.4048-1.039 0.7484-2.081 1.029-3.125 2.571 0.0798 4.44-0.6148 5.548-3.815-2.209-0.6-3.823 0.2243-5.064 1.705 0.197-1.032 0.3337-2.063 0.4166-3.091 2.566-0.4229 4.28-1.45 4.724-4.817-2.313-0.1455-3.726 1.029-4.632 2.775 0.0106-1.126-0.045-2.246-0.1635-3.357 2.495-0.8588 4.039-2.137 3.876-5.54-2.413 0.2818-3.574 1.837-4.101 3.871-0.1964-1.195-0.4652-2.377-0.8028-3.543 2.333-1.272 3.657-2.777 2.907-6.103-2.388 0.7129-3.228 2.53-3.347 4.705-0.1123-0.3299-0.228-0.6586-0.3512-0.9854-0.3676-0.975-0.768-1.9-1.195-2.777 1.985-1.56 2.984-3.19 1.763-6.204-2.116 1.031-2.648 2.838-2.449 4.876-0.6519-1.191-1.353-2.287-2.088-3.294 1.634-1.879 2.307-3.632 0.5614-6.304-1.859 1.404-2.003 3.269-1.397 5.213-0.8757-1.09-1.788-2.059-2.71-2.93 1.257-2.101 1.608-3.911-0.5418-6.192-1.565 1.691-1.364 3.534-0.4217 5.32-1.072-0.9265-2.143-1.719-3.178-2.395 0.8739-2.215 0.9306-4.002-1.492-5.842-1.246 1.897-0.7179 3.653 0.5151 5.229-1.326-0.7949-2.563-1.4-3.621-1.849 0.4961-2.344 0.2752-4.115-2.424-5.505l-5.3e-4 -9e-4c-0.9292 2.154 0.0109 3.824 1.613 5.177-0.647-0.2505-1.176-0.4267-1.607-0.5586-0.1334-0.1623-1.024-1.217-1.977-1.53-1.152-0.3804-2.854 0.333-2.854 0.333s1.074 1.241 2.198 1.511c1.052 0.2525 2.438-0.1758 2.617-0.2335 0.4952 0.1902 1.13 0.4513 1.906 0.8164-1.862-0.2287-3.31 0.2285-4.459 2.515 2.288 0.9598 3.99-0.249 5.337-2.086 1.054 0.5345 2.261 1.218 3.538 2.07-1.788-0.5606-3.304-0.3643-4.869 1.675 2.105 1.398 4.039 0.5081 5.737-1.076 1.018 0.7263 2.065 1.561 3.103 2.511-1.678-0.8134-3.229-0.8254-5.124 0.9429 1.901 1.778 4.016 1.213 6.011-0.1004 0.9275 0.9181 1.837 1.932 2.699 3.053-1.549-1.138-3.11-1.443-5.347 2e-3 1.592 2.131 3.823 1.94 6.066 0.9752 0.7963 1.13 1.541 2.359 2.208 3.692-1.376-1.58-2.907-2.286-5.548-1.231 1.195 2.486 3.513 2.715 5.991 2.166l3e-3 -6e-3c0.2691 0.5892 0.5236 1.197 0.7603 1.826 0.2469 0.6555 0.468 1.322 0.6683 1.995-1.122-1.682-2.571-2.545-5.321-1.939 0.7961 2.717 3.085 3.364 5.678 3.243 0.3088 1.242 0.5392 2.508 0.6865 3.789-0.8239-1.864-2.117-2.971-4.956-2.849 0.3173 2.843 2.48 3.888 5.08 4.222 0.0953 1.395 0.0938 2.802-0.0103 4.211-0.4505-2.184-1.508-3.64-4.512-4.051-0.1998 2.936 1.822 4.374 4.407 5.174-0.1596 1.42-0.4213 2.839-0.794 4.244 0.0662-2.415-0.6151-4.179-3.64-5.244-0.7973 2.878 0.9286 4.716 3.34 6.034l0.0929-0.0504c-0.3445 1.174-0.7668 2.337-1.268 3.483 0.194-2.117-0.4312-3.788-3.083-5.133-1.171 2.761 0.2561 4.831 2.454 6.477-0.5239 1.051-1.115 2.085-1.779 3.095 0.4844-2.013 0.0851-3.75-2.276-5.512-1.652 2.561-0.61 4.884 1.288 6.92-0.0733 0.0989-0.1433 0.1991-0.2181 0.2975-0.6406 0.8425-1.314 1.628-2.015 2.364 0.8846-1.93 0.8278-3.748-1.205-5.97-2.144 2.249-1.533 4.776-0.0149 7.176-0.9072 0.8426-1.852 1.609-2.828 2.304 1.358-1.791 1.734-3.636 0.1032-6.319-2.588 1.826-2.451 4.481-1.388 7.182-0.927 0.5888-1.876 1.119-2.841 1.596 1.415-1.489 1.934-3.229 0.8411-5.992-2.863 1.366-3.223 3.986-2.664 6.824-0.8472 0.3557-1.703 0.6695-2.562 0.9532 1.395-1.249 2.013-2.88 1.37-5.594-3.006 0.9331-3.781 3.422-3.673 6.274-0.2783 0.0727-0.5565 0.1464-0.8346 0.2125-2.416 0.5746-4.434 1.335-6.074 2.112-1.64-0.7773-3.658-1.538-6.074-2.112-0.2781-0.0661-0.5563-0.1399-0.8346-0.2125 0.1081-2.852-0.6662-5.341-3.673-6.274-0.6432 2.714-0.0249 4.345 1.37 5.594-0.8592-0.2838-1.715-0.5975-2.562-0.9532 0.5586-2.838 0.199-5.458-2.664-6.824-1.093 2.763-0.5742 4.503 0.8411 5.992-0.9648-0.4768-1.914-1.007-2.841-1.596 1.063-2.701 1.2-5.356-1.388-7.182-1.631 2.683-1.255 4.528 0.1032 6.319-0.9757-0.6951-1.921-1.462-2.828-2.304 1.518-2.4 2.129-4.926-0.0149-7.176-2.033 2.222-2.09 4.04-1.205 5.97-0.7004-0.736-1.374-1.522-2.015-2.364-0.0748-0.0984-0.1448-0.1986-0.2181-0.2975 1.898-2.035 2.94-4.359 1.288-6.92-2.361 1.762-2.76 3.499-2.276 5.512-0.6647-1.01-1.256-2.044-1.779-3.095 2.198-1.646 3.626-3.716 2.454-6.477-2.652 1.345-3.277 3.016-3.083 5.133-0.5007-1.146-0.923-2.309-1.268-3.483l0.0929 0.0504c2.411-1.318 4.137-3.156 3.34-6.034-3.024 1.065-3.706 2.829-3.64 5.244-0.3726-1.406-0.6344-2.824-0.794-4.244 2.585-0.7996 4.607-2.238 4.407-5.174-3.005 0.4118-4.062 1.868-4.512 4.051-0.1041-1.41-0.1056-2.817-0.0103-4.211 2.6-0.3339 4.763-1.379 5.08-4.222-2.839-0.1219-4.132 0.985-4.956 2.849 0.1473-1.281 0.3777-2.546 0.6865-3.789 2.593 0.1215 4.882-0.5253 5.678-3.243-2.75-0.6058-4.199 0.257-5.321 1.939 0.2003-0.6733 0.4214-1.34 0.6683-1.995 0.2367-0.6285 0.4913-1.236 0.7603-1.826l3e-3 6e-3c2.478 0.5495 4.795 0.3201 5.991-2.166-2.641-1.055-4.172-0.3485-5.548 1.231 0.6676-1.333 1.412-2.562 2.208-3.692 2.244 0.9648 4.474 1.156 6.066-0.9752-2.237-1.445-3.798-1.14-5.347-2e-3 0.8619-1.121 1.771-2.135 2.699-3.053 1.995 1.314 4.11 1.878 6.011 0.1004-1.896-1.768-3.446-1.756-5.124-0.9429 1.038-0.9502 2.085-1.785 3.103-2.511 1.698 1.584 3.632 2.474 5.737 1.076-1.565-2.039-3.081-2.235-4.869-1.675 1.277-0.8528 2.484-1.536 3.538-2.07 1.347 1.837 3.049 3.046 5.337 2.086-1.148-2.286-2.597-2.744-4.459-2.515 0.7762-0.365 1.411-0.6261 1.906-0.8164 0.1793 0.0577 1.565 0.486 2.617 0.2335 1.124-0.2698 2.198-1.511 2.198-1.511s-1.702-0.7134-2.854-0.333c-0.9532 0.3128-1.844 1.368-1.977 1.53-0.431 0.1319-0.96 0.3081-1.607 0.5586 1.602-1.353 2.542-3.022 1.613-5.177zm-22.5 0.4189-1.161 1.211 0.0644 0.0616c0.1172-0.0997 0.2096-0.162 0.277-0.1873 0.133-0.045 0.2454-0.0236 0.3372 0.0644 0.0505 0.0485 0.0828 0.1086 0.0971 0.1798 0.0142 0.0676 0.0232 0.2162 0.0261 0.4455l0.0397 2.319-0.9971-0.9565c-0.191-0.1832-0.3222-0.329-0.3942-0.4376-0.0721-0.1123-0.1102-0.2263-0.1144-0.3419-4e-3 -0.1045 0.0133-0.2012 0.0519-0.29 0.0403-0.0908 0.1087-0.1924 0.2055-0.3045l-0.0649-0.0616-1.721 1.795 0.0649 0.0616c0.108-0.1014 0.2062-0.1741 0.2952-0.2181 0.089-0.0444 0.1849-0.0653 0.2877-0.0635 0.1174-3e-3 0.2318 0.0297 0.3433 0.0971 0.1115 0.0674 0.2639 0.1938 0.4568 0.3788l2.07 1.986c0.1929 0.185 0.3254 0.3318 0.3974 0.4404 0.0719 0.1086 0.1092 0.2217 0.1116 0.339 4e-3 0.1009-0.0134 0.1975-0.0519 0.29-0.0385 0.0889-0.1069 0.1901-0.2055 0.304l0.0644 0.0621 1.721-1.795-0.0644-0.0621c-0.1098 0.1032-0.2094 0.1769-0.2984 0.2209-0.0891 0.0404-0.184 0.0609-0.2849 0.0612-0.1156 4.8e-4 -0.23-0.0321-0.3433-0.0976-0.1134-0.0692-0.2658-0.1951-0.4568-0.3783l-0.9294-0.892-5e-3 -0.3549 1.39 0.1196c0.1544 0.0115 0.3502 0.0322 0.5875 0.0621s0.402 0.0531 0.4941 0.0696c0.1897 0.0347 0.3221 0.0883 0.397 0.1602 0.0693 0.0664 0.0919 0.1474 0.0682 0.2433-0.0237 0.0959-0.097 0.2196-0.2204 0.3708l0.0644 0.0616 1.781-1.856-0.0644-0.0616c-0.0957 0.0773-0.1815 0.135-0.2578 0.1733-0.0782 0.0365-0.1794 0.0689-0.3036 0.0971-0.2045 0.0483-0.4367 0.0614-0.6959 0.0392l-0.3587-0.0369-2.893-0.2891-4.8e-4 -1.748c2.4e-4 -0.3413 9e-3 -0.5735 0.0267-0.6968 0.0161-0.1104 0.0409-0.2019 0.0743-0.2742 0.0333-0.0759 0.0859-0.1589 0.1574-0.2485zm64.77 0.1121 0.114 0.1116c0.1981 0.1944 0.3384 0.3572 0.4203 0.4885 0.0838 0.1295 0.1335 0.2642 0.1494 0.4035 0.0184 0.1816-8e-3 0.3642-0.0803 0.5483-0.068 0.1841-0.1735 0.3492-0.3171 0.4955-0.269 0.2738-0.5915 0.408-0.9677 0.4026-0.167-4e-3 -0.3131-0.0418-0.4385-0.114-0.1236-0.0704-0.3004-0.2183-0.5301-0.4437l-0.1056-0.1037zm3.337 4.069c-0.105 5e-3 -0.2106 0.0223-0.3162 0.05-0.2096 0.0574-0.3984 0.1531-0.567 0.2872-0.2741 0.2181-0.4371 0.4904-0.489 0.8168-0.019 0.1179-0.0217 0.2543-8e-3 0.4091 0.0154 0.1568 0.051 0.3703 0.107 0.6408 0.0628 0.3081 0.0998 0.5443 0.1107 0.708 0.0126 0.1658 3e-3 0.3096-0.0295 0.4315-0.0319 0.1182-0.0888 0.2364-0.1705 0.3545-0.0802 0.1202-0.172 0.2212-0.2755 0.3036-0.2396 0.1906-0.4982 0.2721-0.7757 0.2442-0.2775-0.0278-0.5092-0.1584-0.6949-0.3918-0.2666-0.335-0.3173-0.7491-0.1523-1.242 0.091-0.2648 0.2627-0.5674 0.5156-0.9079l-0.0556-0.0701-1.265 0.992 0.056 0.0696c0.1265-0.041 0.2284-0.0125 0.3059 0.085 0.0243 0.0305 0.042 0.0606 0.0532 0.0915 0.0113 0.0308 0.0397 0.1313 0.085 0.3008 0.0887 0.324 0.2371 0.617 0.4456 0.879 0.2278 0.2863 0.4896 0.4838 0.7855 0.5931 0.298 0.1078 0.6078 0.1199 0.9294 0.0364 0.2303-0.0606 0.439-0.1648 0.6258-0.3134 0.2802-0.2229 0.4593-0.502 0.538-0.8365 0.0725-0.2964 0.0551-0.6721-0.0519-1.127l-0.1345-0.5945c-0.1402-0.6013-0.0407-1.036 0.2984-1.306 0.0853-0.0679 0.1824-0.1204 0.2919-0.1579 0.1111-0.0354 0.2199-0.0511 0.3265-0.0463 0.2593 9e-3 0.4794 0.1276 0.6604 0.3549 0.1244 0.1563 0.1957 0.3251 0.2139 0.5063 0.0202 0.1796-9e-3 0.3821-0.0883 0.6076-0.0436 0.1243-0.1018 0.247-0.1747 0.368-0.0692 0.1214-0.1786 0.2863-0.3279 0.4946l0.0556 0.07 1.192-0.9836-0.056-0.07c-0.1229 0.058-0.2125 0.0514-0.269-0.0196-0.0226-0.0284-0.0432-0.0646-0.0621-0.1093-0.0169-0.0463-0.0457-0.1366-0.0859-0.2704-0.0514-0.1813-0.1003-0.3194-0.1466-0.4152-0.0443-0.0974-0.1043-0.1941-0.1803-0.2896-0.2343-0.2944-0.5363-0.4699-0.9065-0.5268-0.1043-0.0164-0.2089-0.022-0.3138-0.0164zm-73.01 2.355c-0.2504-2e-3 -0.4912 0.0738-0.722 0.227-0.204 0.137-0.4273 0.366-0.6697 0.6874-0.0579 0.0799-0.1755 0.2492-0.3531 0.5081l-1.061 1.547 0.0738 0.0504c0.09-0.1176 0.1753-0.2054 0.2559-0.2634 0.0806-0.058 0.1716-0.0946 0.2732-0.1098 0.1155-0.0217 0.234-8e-3 0.355 0.0401 0.121 0.0483 0.2914 0.1482 0.5119 0.2994l2.366 1.622c0.2204 0.1511 0.3746 0.2744 0.4633 0.3699 0.0888 0.0954 0.1443 0.2008 0.1658 0.3162 0.0203 0.0989 0.0186 0.1971-5e-3 0.2947-0.0235 0.094-0.0745 0.2054-0.1532 0.3339l0.0737 0.0504 1.406-2.051-0.0738-0.0504c-0.0915 0.1197-0.1776 0.2087-0.2583 0.2667-0.0813 0.0543-0.1713 0.0898-0.2709 0.1065-0.1141 0.0196-0.2326 6e-3 -0.3549-0.0401-0.1232-0.0498-0.2936-0.1497-0.5119-0.2994l-1.136-0.779 0.1079-0.1574c0.0661-0.0963 0.1314-0.171 0.1962-0.2242 0.0626-0.0546 0.1348-0.0963 0.2172-0.1247 0.1634-0.0547 0.4089-0.0706 0.736-0.0476 0.3293 0.0245 0.693 0.0745 1.091 0.1494l0.6646 0.1252c0.0424 7e-3 0.1408 0.0241 0.2952 0.0513l0.7304-1.066-0.0738-0.0504c-0.0687 0.0819-0.1334 0.1395-0.1943 0.1733-0.0594 0.0316-0.1408 0.0513-0.2438 0.0593-0.1268 0.0106-0.3137 4e-3 -0.5609-0.0211-0.2479-0.0284-0.6332-0.0817-1.155-0.1597-0.227-0.0361-0.3873-0.0568-0.4815-0.0616-0.0964-6e-3 -0.1838-2.2e-4 -0.2625 0.0183-0.1003 0.0224-0.2214 0.0797-0.3629 0.1714 0.0728-0.1797 0.1216-0.329 0.1462-0.4474 0.026-0.1206 0.0356-0.2396 0.0285-0.3577-0.028-0.3904-0.2093-0.7-0.5432-0.9289-0.2247-0.1541-0.4615-0.2302-0.7113-0.2284zm-0.6225 0.7715c0.0923-3e-3 0.187 5e-3 0.284 0.0248 0.193 0.0352 0.3741 0.1106 0.5432 0.2265 0.3167 0.2172 0.5052 0.5113 0.5651 0.8827 0.0252 0.1651 0.0128 0.316-0.0364 0.4521-0.0478 0.134-0.1623 0.3334-0.3442 0.5988l-0.0841 0.1219-2.067-1.417 0.0901-0.1317c0.157-0.229 0.2931-0.3952 0.4082-0.4988 0.1129-0.105 0.2364-0.1776 0.3708-0.2176 0.0877-0.0248 0.1776-0.0383 0.2699-0.0411zm76.7 0.1041-0.0747 0.0491c0.0742 0.1282 0.1225 0.2405 0.1452 0.3372 0.0227 0.0967 0.0215 0.1949-4e-3 0.2947-0.0242 0.1149-0.0819 0.2187-0.1728 0.312s-0.2482 0.2133-0.4722 0.3592l-2.403 1.565c-0.2239 0.1458-0.3968 0.2413-0.5189 0.2867-0.1221 0.0455-0.241 0.0565-0.3559 0.0323-0.0991-0.019-0.189-0.0579-0.2704-0.1163-0.0778-0.0577-0.1612-0.1476-0.2498-0.2695l-0.0752 0.0491 1.358 2.084 0.0747-0.0491c-0.0876-0.1535-0.1397-0.2884-0.1564-0.4044-0.0148-0.1176 3e-3 -0.2326 0.0532-0.3456 0.0376-0.0802 0.1031-0.1631 0.1962-0.2485 0.093-0.0854 0.2296-0.1869 0.41-0.3045l2.403-1.565c0.15-0.0977 0.2868-0.1776 0.4105-0.2396 0.1671-0.081 0.322-0.1075 0.4642-0.0794 0.1027 0.0198 0.193 0.0587 0.2709 0.1163 0.0793 0.0598 0.1621 0.1498 0.2494 0.2695l0.0752-0.0491zm2.102 3.223-1.314 0.5833 0.0336 0.0836c0.3061-0.0845 0.5661-0.1155 0.7809-0.0929 0.2333 0.0248 0.4296 0.1062 0.5889 0.2438 0.1605 0.1399 0.3402 0.3838 0.5385 0.7314 0.0933 0.1622 0.1768 0.3159 0.2503 0.4619l-3.546 1.786c-0.2387 0.1202-0.4217 0.1948-0.5492 0.2242-0.1264 0.0315-0.2446 0.0303-0.355-5e-3 -0.0999-0.031-0.1861-0.0807-0.2583-0.149-0.0709-0.0659-0.1439-0.1643-0.2186-0.2952l-0.0799 0.0401 1.119 2.221 0.0799-0.0407c-0.0596-0.1356-0.0955-0.2526-0.1074-0.3512-0.0107-0.0963 2e-3 -0.1936 0.036-0.2924 0.038-0.1092 0.1064-0.2064 0.206-0.2914 0.103-0.0839 0.2727-0.185 0.5091-0.304l3.546-1.786c0.2591 0.5144 0.4117 0.8953 0.4577 1.142 0.0566 0.2911 0.0345 0.5447-0.0659 0.7608-0.0968 0.2173-0.2904 0.4384-0.581 0.6632l0.0472 0.0761 1.251-0.7085zm-80.24 0.481c-0.2399-2e-3 -0.4854 0.0291-0.7365 0.0934-0.4115 0.1049-0.7796 0.2844-1.104 0.5385-0.3268 0.2529-0.5804 0.5574-0.7617 0.9135-0.1424 0.2798-0.2344 0.5826-0.2751 0.9084-0.043 0.3246-0.0334 0.6524 0.028 0.9836 0.085 0.445 0.2511 0.8358 0.4993 1.172 0.2459 0.3348 0.5634 0.6008 0.9518 0.7986 0.296 0.1507 0.6071 0.2451 0.934 0.2835 0.3258 0.0349 0.6451 0.0114 0.9579-0.071 0.3988-0.1027 0.7588-0.2835 1.08-0.5422 0.321-0.2587 0.575-0.572 0.7622-0.9397 0.1896-0.3722 0.2934-0.7675 0.3115-1.186 0.0193-0.4211-0.0483-0.8284-0.2032-1.222-0.123-0.3188-0.2951-0.6017-0.5161-0.8481-0.221-0.2465-0.4793-0.4448-0.7753-0.5955-0.3685-0.1876-0.7529-0.2834-1.153-0.2867zm39.41 0.0584s-6.61 8.008-18.88 7.613c-0.2539-8e-3 -0.426 0.0474-0.4339 0.2788-0.4548 13.38-0.3074 19.67 4.815 27.61 4.163 6.451 14.49 10.19 14.49 10.19s10.33-3.74 14.49-10.19c5.118-7.931 5.265-14.22 4.816-27.58-8e-3 -0.2421-0.1372-0.3163-0.4572-0.3068-12.25 0.3632-18.85-7.614-18.85-7.614zm-40.28 0.6711c0.177 8e-4 0.3612 0.0196 0.553 0.0547 0.3824 0.0667 0.7598 0.1948 1.132 0.3844 0.6774 0.345 1.154 0.8176 1.431 1.418 0.1233 0.2724 0.1843 0.5245 0.1826 0.7566-5.3e-4 0.2297-0.0627 0.4662-0.1863 0.709-0.1224 0.2405-0.2771 0.4296-0.4638 0.5674-0.1878 0.1343-0.4261 0.2315-0.7155 0.291-0.6461 0.1311-1.305 0.0258-1.975-0.3157v-5.3e-4c-0.3815-0.1942-0.7134-0.426-0.9957-0.6949-0.2823-0.269-0.4913-0.5531-0.6272-0.8523-0.1142-0.2503-0.169-0.486-0.1639-0.7076 6e-3 -0.2239 0.0718-0.4587 0.1966-0.7038 0.126-0.2474 0.2789-0.4388 0.4586-0.5744 0.1786-0.1391 0.4006-0.2344 0.6655-0.2858 0.1621-0.0324 0.3316-0.0476 0.5086-0.0463zm40.28 0.3998s7.04 7.501 18.63 7.3c0.445 12.95 0.1108 19.14-4.808 26.76-3.969 6.15-13.82 9.726-13.82 9.726s-9.85-3.576-13.82-9.726c-4.919-7.622-5.253-13.81-4.808-26.76 11.59 0.2011 18.63-7.3 18.63-7.3zm0 1.329s-5.978 6.456-17.69 6.934c-0.4227 12.3 0.1991 18.54 4.328 24.94 3.994 6.189 13.37 9.491 13.37 9.491s9.372-3.302 13.37-9.491c4.129-6.399 4.751-12.64 4.328-24.94-11.72-0.4782-17.69-6.934-17.69-6.934zm43.67 2.873-0.0845 0.0285c0.0326 0.1122 0.0518 0.2016 0.0579 0.2681 6e-3 0.0664 8e-4 0.1367-0.0149 0.2106-0.0279 0.1437-0.1141 0.3101-0.2583 0.4988l-0.2004 0.2569-1.109 1.441c-0.1694 0.2192-0.3188 0.3768-0.4479 0.4726-0.1111 0.0843-0.2181 0.1443-0.3213 0.1793l-0.7202 0.24c-0.253 0.0859-0.4444 0.1361-0.574 0.1499-0.1295 0.0138-0.2462-5e-3 -0.3507-0.0537-0.0946-0.0446-0.173-0.1055-0.2349-0.1831-0.062-0.0776-0.1207-0.1852-0.1756-0.3227l-0.0845 0.0285 0.7996 2.355 0.0845-0.0285c-0.0851-0.2506-0.0793-0.4675 0.0173-0.651 0.0544-0.1062 0.1339-0.1919 0.2377-0.2573 0.1071-0.0638 0.292-0.1405 0.5548-0.2298l0.9028-0.3064c0.1695-0.0578 0.2939-0.0878 0.3727-0.0897 0.0787-2e-3 0.2114 0.0215 0.3979 0.0705l1.568 0.4049c0.3813 0.098 0.6785 0.2034 0.8925 0.3171 0.0881 0.0496 0.1574 0.1043 0.2078 0.1639 0.0529 0.0588 0.1082 0.1495 0.1663 0.2723l0.0849-0.0285-0.5758-1.695-0.0845 0.0285c0.0616 0.1817 0.0666 0.338 0.0149 0.468-0.0518 0.1299-0.1566 0.2212-0.3138 0.2746-0.1376 0.0467-0.2927 0.0491-0.4661 6e-3l-0.1835-0.0448-1.625-0.4016 1.224-1.53c0.0848-0.1055 0.1572-0.1862 0.2176-0.2424 0.0613-0.0537 0.1205-0.0901 0.177-0.1093 0.1548-0.0525 0.2848-0.02 0.3904 0.0976 0.0437 0.0482 0.1062 0.172 0.1877 0.3718l0.085-0.0285zm-87.46 0.27-0.5623 1.7 0.085 0.028c0.0603-0.1823 0.1503-0.3096 0.2699-0.382 0.1196-0.0725 0.258-0.0825 0.4157-0.0304 0.1379 0.0456 0.2637 0.1376 0.3764 0.276l0.1196 0.1462 1.054 1.3-1.898 0.4829c-0.1312 0.0332-0.2379 0.0538-0.3199 0.0621-0.0812 6e-3 -0.1502-5.3e-4 -0.2069-0.0192-0.1552-0.0513-0.2396-0.1559-0.2531-0.3134-5e-3 -0.0648 0.0189-0.2015 0.0743-0.41l-0.0849-0.028-0.7968 2.409 0.085 0.028c0.0416-0.1092 0.0797-0.1922 0.1149-0.2489 0.0352-0.0567 0.0814-0.1099 0.1387-0.1592 0.1089-0.0979 0.278-0.1782 0.5067-0.2419l0.3148-0.0845 1.754-0.4815c0.2673-0.0728 0.4814-0.1086 0.6422-0.1074 0.1395-2.4e-4 0.2613 0.0167 0.3647 0.0509l0.7192 0.2424c0.2537 0.0841 0.4361 0.1595 0.5478 0.2265 0.1117 0.0671 0.1944 0.1516 0.248 0.2541 0.0486 0.0926 0.0744 0.1884 0.0771 0.2877 3e-3 0.0993-0.0155 0.2205-0.0547 0.3634l0.0849 0.028 0.7813-2.361-0.085-0.028c-0.0831 0.2513-0.2186 0.4208-0.4063 0.5091-0.1074 0.052-0.2219 0.073-0.3442 0.0626-0.1239-0.0137-0.3179-0.0641-0.5814-0.1513l-0.9051-0.2993c-0.1699-0.0564-0.2871-0.1074-0.3512-0.1532-0.0641-0.0458-0.1558-0.1446-0.2751-0.2961l-1.007-1.268c-0.2452-0.308-0.4185-0.572-0.5207-0.7916-0.0404-0.0926-0.063-0.1775-0.0672-0.2555-7e-3 -0.0787 4e-3 -0.1846 0.0313-0.3176zm43.78 0.9219c0.1325 0 0.2391 0.1066 0.2391 0.2391v4.543c0 0.1325-0.1066 0.2391-0.2391 0.2391-0.1325 0-0.2391-0.1066-0.2391-0.2391v-4.543c0-0.1325 0.1066-0.2391 0.2391-0.2391zm-14.76 8.492h6.544v0.2307c-0.5554 0.0334-0.91 0.084-1.064 0.1508-0.3747 0.1606-0.5618 0.4513-0.5618 0.8729 0 0.1539 0.0402 0.3281 0.1205 0.5221 0.0869 0.1941 0.2241 0.4383 0.4114 0.7328l2.72 4.256 2.329-3.633 0.2611-0.4119c0.2476-0.3881 0.3713-0.7695 0.3713-1.144 0-0.4283-0.1371-0.7596-0.4114-0.9938-0.2744-0.2342-0.6588-0.3512-1.154-0.3512v-0.2307h4.617v0.2307c-0.348 0.0401-0.6155 0.1004-0.8028 0.1807-0.1874 0.0736-0.3781 0.1973-0.5721 0.3713-0.455 0.4283-0.9606 1.067-1.516 1.917l-2.288 3.493c-0.2744 0.4149-0.4418 0.7195-0.502 0.9135-0.0602 0.1941-0.0901 0.5218-0.0901 0.9836v2.459c0 0.716 0.0335 1.231 0.1004 1.546 0.0737 0.3078 0.2174 0.5722 0.4315 0.793 0.368 0.3881 0.8932 0.5824 1.576 0.5824v0.2307h-6.414v-0.2307c0.3814-0.0201 0.6927-0.0736 0.9336-0.1607 0.2409-0.087 0.4548-0.2277 0.6422-0.4217 0.2074-0.2141 0.3481-0.4852 0.4217-0.8131 0.0737-0.3279 0.1102-0.8365 0.1102-1.526l0.0103-1.957c0-0.281-0.0572-0.5918-0.1709-0.9331-0.1271-0.3948-0.3879-0.89-0.7828-1.486l-2.6-3.905-0.4614-0.7024c-0.3413-0.5086-0.6762-0.8564-1.004-1.044-0.1673-0.1004-0.3343-0.1709-0.5016-0.2111-0.1673-0.0401-0.4018-0.067-0.7029-0.0803zm14.88 0h6.414v0.2307c-0.3814 0.0201-0.6922 0.0736-0.9331 0.1606-0.2409 0.087-0.4517 0.2277-0.6324 0.4217-0.2208 0.2275-0.3682 0.5084-0.4418 0.843-0.0669 0.3346-0.1004 0.9102-0.1004 1.727v5.681c0 0.9235 0.0335 1.592 0.1004 2.007 0.0736 0.4082 0.2174 0.7864 0.4315 1.134 0.3212 0.5286 0.716 0.9131 1.184 1.154 0.4751 0.2342 1.071 0.3512 1.787 0.3512 0.6959 0 1.358-0.1036 1.987-0.311 0.6357-0.2141 1.164-0.5084 1.586-0.8832 0.261-0.2342 0.4517-0.4888 0.5721-0.7631 0.1271-0.2744 0.2106-0.6222 0.2508-1.044 0.0267-0.2744 0.0401-0.9232 0.0401-1.947v-5.611c0-0.6892-0.0398-1.198-0.12-1.526-0.0737-0.3279-0.2143-0.599-0.4217-0.8131-0.1874-0.1941-0.4017-0.3347-0.6426-0.4217-0.2342-0.087-0.5419-0.1406-0.9233-0.1606v-0.2307h4.627v0.2307c-0.3814 0.0201-0.6927 0.0736-0.9336 0.1606-0.2342 0.087-0.445 0.2277-0.6324 0.4217-0.2074 0.2141-0.3512 0.4883-0.4315 0.8229-0.0737 0.3279-0.1102 0.8334-0.1102 1.516v6.333c0 0.9368-0.0737 1.629-0.2209 2.078-0.1405 0.4416-0.425 0.8467-0.8533 1.215-0.977 0.8432-2.372 1.265-4.186 1.265-1.894 0-3.289-0.3984-4.186-1.195-0.5822-0.5086-0.93-1.178-1.044-2.007-0.0401-0.2944-0.0603-0.8268-0.0603-1.596v-6.092c0-0.6892-0.0366-1.198-0.1102-1.526-0.0737-0.3279-0.2174-0.599-0.4315-0.8131-0.1807-0.1941-0.3914-0.3347-0.6324-0.4217-0.2342-0.087-0.5455-0.1406-0.9336-0.1606zm-0.1233 16.38c0.1325 0 0.2391 0.1066 0.2391 0.2391v8.13c0 0.1325-0.1066 0.2391-0.2391 0.2391-0.1325 0-0.2391-0.1066-0.2391-0.2391v-8.13c0-0.1325 0.1066-0.2391 0.2391-0.2391zm-37.52 12.03-0.0435 0.0248c0.037 0.0743 0.0598 0.139 0.0691 0.1938 9e-3 0.0549 5e-3 0.1095-0.0121 0.1644-0.0176 0.0633-0.0532 0.1196-0.1074 0.1686-0.0541 0.0489-0.1466 0.11-0.277 0.1835l-1.399 0.7898c-0.1303 0.0736-0.2304 0.1209-0.3003 0.142-0.0699 0.0213-0.1365 0.0228-0.1999 5e-3 -0.0547-0.0142-0.1037-0.0387-0.1471-0.0743-0.0415-0.035-0.0846-0.0885-0.1298-0.1597l-0.0439 0.0248 0.6847 1.213 0.0439-0.0248c-0.0435-0.0888-0.068-0.1657-0.0733-0.2312-4e-3 -0.0662 0.01-0.13 0.042-0.1915 0.0239-0.0435 0.0632-0.0878 0.1182-0.1322 0.055-0.0444 0.135-0.0962 0.2401-0.1555l1.399-0.7893c0.0873-0.0494 0.1668-0.0894 0.2382-0.1196 0.0963-0.0393 0.1835-0.0483 0.262-0.0276 0.0567 0.0147 0.1057 0.0392 0.1471 0.0743 0.0421 0.0362 0.0858 0.0893 0.1303 0.1593l0.0435-0.0243zm74.57 0.8533-1.214 2.004 0.0429 0.0261c0.0474-0.0698 0.092-0.1218 0.1345-0.1555 0.0432-0.035 0.0931-0.0583 0.1494-0.07 0.0631-0.0145 0.1299-9e-3 0.2004 0.0145 0.07 0.022 0.1684 0.0713 0.2952 0.148l1.374 0.8318c0.1268 0.0767 0.2169 0.1418 0.27 0.1943 0.0526 0.0505 0.0872 0.1069 0.1037 0.1695 0.0151 0.0567 0.017 0.1122 6e-3 0.1667-0.0102 0.0532-0.0346 0.1165-0.0738 0.1896l0.0425 0.0261 1.347-2.224-0.7272-0.4736-0.028 0.042c0.0976 0.0914 0.1717 0.172 0.2228 0.2419 0.0518 0.0688 0.0909 0.1415 0.1172 0.2186 0.0411 0.1116 0.0509 0.2295 0.0285 0.3536-0.0237 0.1232-0.0806 0.2595-0.1709 0.4086-0.0858 0.1417-0.1758 0.2437-0.2695 0.3059-0.0942 0.0602-0.1988 0.0843-0.3138 0.0724-0.0672-6e-3 -0.1418-0.0293-0.2242-0.0672-0.0836-0.0387-0.2108-0.1094-0.3811-0.2125l-0.4269-0.2587 0.0644-0.1065c0.0557-0.092 0.111-0.1618 0.1658-0.2102 0.0548-0.0484 0.1132-0.0793 0.1756-0.0925 0.0643-0.0136 0.132-0.0133 0.2032 7.9e-4 0.0719 0.013 0.1591 0.0429 0.2615 0.0897l0.0261-0.0429-0.9948-0.6127-0.028 0.042c0.0889 0.0691 0.1532 0.1272 0.1924 0.1747 0.0388 0.0454 0.0654 0.0965 0.0803 0.1532 0.0167 0.0594 0.0156 0.1225-5e-3 0.1887-0.0197 0.0662-0.0642 0.1559-0.1326 0.269l-0.0677 0.1116-1.119-0.6772 0.2587-0.4269c0.0798-0.1318 0.1527-0.232 0.2195-0.3003 0.0656-0.0691 0.1378-0.1192 0.2167-0.1513 0.0951-0.0393 0.1884-0.0569 0.2793-0.0528 0.0909 5e-3 0.1936 0.0295 0.3078 0.0765l0.0239-0.0439zm-73.62 0.8589-0.0416 0.0276c0.0425 0.0728 0.0697 0.1358 0.0817 0.1887 0.0128 0.0541 0.0124 0.1089-9e-4 0.1648-0.0142 0.0632-0.0474 0.1215-0.0995 0.1747-0.05 0.0536-0.1364 0.1204-0.2592 0.2008l-1.346 0.8808c-0.124 0.0812-0.2211 0.1345-0.2914 0.1597-0.0683 0.0257-0.1344 0.0324-0.198 0.0201-0.0576-0.0109-0.1087-0.0329-0.1532-0.0663-0.0436-0.0322-0.0897-0.0816-0.1387-0.1485l-0.042 0.0271 0.5502 0.8406 0.042-0.0276c-0.0418-0.0717-0.0689-0.1346-0.0817-0.1887-0.0121-0.0529-0.0116-0.1077 2e-3 -0.1648 0.0142-0.0632 0.0462-0.1216 0.0962-0.1751 0.0508-0.0524 0.1387-0.1193 0.2639-0.2013l1.586-1.039-1.034 3.131 0.0541 0.0822 1.918-1.256c0.1228-0.0804 0.2184-0.1337 0.2868-0.1592 0.0703-0.0252 0.1372-0.0318 0.2008-0.0196 0.1151 0.022 0.2123 0.0937 0.2919 0.2153l0.042-0.0276-0.5506-0.8406-0.042 0.0276c0.0417 0.0717 0.0688 0.1339 0.0808 0.1868 0.0128 0.0541 0.0129 0.1101 0 0.1672-0.0142 0.0632-0.0468 0.1209-0.0976 0.1733-0.05 0.0536-0.1377 0.1212-0.2629 0.2032l-1.317 0.8621 0.9196-2.718zm72.04 1.668-0.0304 0.0426c0.0187 0.0313 0.0309 0.0552 0.0369 0.0719 0.0113 0.0366 6e-3 0.0699-0.0145 0.0995-0.0152 0.0212-0.0382 0.0423-0.0691 0.063l-0.1518 0.1112c-0.1684 0.1208-0.3037 0.2529-0.4058 0.396-0.1072 0.1502-0.1889 0.3184-0.2452 0.5049-0.0567 0.1844-0.0812 0.3607-0.0728 0.5291 0.0116 0.2189 0.0812 0.4328 0.2088 0.6417 0.1264 0.208 0.2982 0.3896 0.5147 0.5441 0.2826 0.2017 0.5738 0.3084 0.8738 0.3208 0.2988 0.0116 0.5719-0.0735 0.8196-0.2554 0.1548-0.1144 0.2908-0.2534 0.4072-0.4166 0.1249-0.175 0.2067-0.3486 0.2456-0.5208 0.0398-0.1733 0.0339-0.3354-0.0173-0.4862-0.0534-0.1577-0.1654-0.3144-0.3363-0.4703l-0.0364 0.0355c0.1448 0.1498 0.2417 0.2943 0.291 0.4329 0.0429 0.1199 0.0501 0.2505 0.0205 0.3918-0.0307 0.1405-0.0943 0.278-0.1906 0.4129-0.1925 0.2696-0.4402 0.4194-0.7435 0.4493-0.1638 0.017-0.3369-5e-3 -0.5189-0.0649-0.1819-0.0602-0.3659-0.1566-0.5516-0.2891-0.2188-0.1562-0.3899-0.3291-0.5133-0.5189-0.088-0.1343-0.1524-0.2722-0.1938-0.4143-0.0427-0.1429-0.0589-0.2757-0.0481-0.3984 0.0121-0.1395 0.0657-0.2759 0.1611-0.4096 0.0633-0.0888 0.1349-0.1585 0.2139-0.2092 0.0791-0.0507 0.1735-0.0869 0.2835-0.1084 0.1452-0.0284 0.2839-0.0304 0.4161-5e-3 0.0742 0.0136 0.1829 0.0402 0.326 0.0799 0.0228 5e-3 0.0559 0.0143 0.0995 0.0257l0.0289-0.0406zm-70.04 1.355-0.6585 0.4638 0.0271 0.042c0.159-0.0797 0.299-0.125 0.4194-0.1359 0.1309-0.0118 0.2473 0.0113 0.3498 0.0696 0.1034 0.0594 0.2288 0.1739 0.3755 0.3432 0.0689 0.0789 0.1315 0.1543 0.1878 0.2265l-1.753 1.367c-0.118 0.092-0.2105 0.1531-0.2774 0.1831-0.066 0.0312-0.1313 0.0434-0.1957 0.0364-0.0583-6e-3 -0.1108-0.024-0.1579-0.0537-0.0462-0.0285-0.097-0.0749-0.1522-0.1387l-0.0392 0.0308 0.8561 1.098 0.0397-0.0308c-0.0474-0.068-0.0799-0.1284-0.0971-0.1812-0.0164-0.0518-0.0203-0.1069-0.0121-0.1648 9e-3 -0.0641 0.0358-0.1246 0.0812-0.1822 0.0474-0.0573 0.1297-0.1316 0.2466-0.2228l1.753-1.367c0.1983 0.2544 0.3238 0.447 0.376 0.5777 0.0627 0.1537 0.0783 0.2954 0.0467 0.425-0.0296 0.1299-0.1119 0.2722-0.2471 0.4273l0.0341 0.0369 0.6099-0.5254zm68.17 1.254-0.6487 0.7673 0.0383 0.0322c0.0568-0.0604 0.1088-0.1037 0.156-0.1303 0.0482-0.0279 0.1013-0.044 0.1597-0.0476 0.0646-5e-3 0.1296 0.0106 0.1943 0.0444 0.0656 0.0326 0.1552 0.0972 0.2695 0.1938l1.202 1.016-2.867-0.107-0.5418 0.6408 0.0383 0.0323c0.0577-0.0616 0.1102-0.1056 0.1574-0.1322 0.0483-0.0275 0.1013-0.0428 0.1588-0.0457 0.0646-5e-3 0.1294 0.0107 0.1952 0.0453 0.0656 0.0326 0.1546 0.0967 0.2667 0.1915l1.228 1.039c0.1131 0.0957 0.1916 0.1738 0.2358 0.234 0.044 0.0582 0.0693 0.1191 0.0756 0.1836 6e-3 0.0583-7.9e-4 0.1137-0.02 0.1658-0.0184 0.0511-0.0526 0.1096-0.1028 0.1756l0.0383 0.0322 0.6487-0.7668-0.0383-0.0323c-0.0568 0.0605-0.1092 0.1044-0.1574 0.1322-0.0473 0.0268-0.1004 0.0421-0.1588 0.0457-0.0646 5e-3 -0.1296-0.01-0.1952-0.0425-0.0647-0.0338-0.1543-0.099-0.2685-0.1957l-1.448-1.225 3.296 0.099 0.0635-0.0752-1.751-1.48c-0.112-0.0948-0.1899-0.1711-0.234-0.2293-0.0442-0.0602-0.0698-0.1229-0.0761-0.1873-0.0118-0.1165 0.0295-0.23 0.1233-0.3409zm-66.04 1.445-0.0369 0.0336c0.0535 0.0653 0.0904 0.123 0.1107 0.1733 0.0212 0.0514 0.0296 0.1056 0.0248 0.163-5e-3 0.0646-0.0276 0.1275-0.0705 0.1882-0.0409 0.0608-0.116 0.1412-0.2256 0.241l-1.188 1.081c-0.1096 0.0998-0.1975 0.1676-0.2629 0.2036-0.0633 0.0359-0.1272 0.0532-0.1919 0.0514-0.0586-2e-3 -0.1124-0.0156-0.1616-0.0416-0.0482-0.0249-0.1017-0.0663-0.1607-0.1247l-0.0373 0.0336 1.751 1.923 0.6604-0.5632-0.0323-0.0383c-0.1153 0.0676-0.2136 0.1157-0.2952 0.1448-0.0806 0.0299-0.1619 0.0468-0.2433 0.0504-0.1186 8e-3 -0.234-0.0166-0.3465-0.0733-0.1115-0.0577-0.2259-0.1508-0.3433-0.2798-0.1115-0.1225-0.1841-0.2376-0.2172-0.3451-0.031-0.1074-0.024-0.2144 0.0201-0.3213 0.0256-0.0625 0.0682-0.128 0.128-0.1962 0.0608-0.0691 0.1648-0.171 0.312-0.305l0.369-0.3358 0.0836 0.0915c0.0724 0.0795 0.1242 0.1528 0.155 0.219 0.0309 0.0663 0.0434 0.1308 0.0383 0.1943-5e-3 0.0655-0.0245 0.1305-0.0584 0.1947-0.0329 0.0653-0.0863 0.1406-0.1602 0.2256l0.0336 0.0369 0.8701-0.78-0.0323-0.0383c-0.0915 0.0656-0.1656 0.1104-0.2223 0.1345-0.0546 0.0243-0.1115 0.0354-0.17 0.0336-0.0616-7.9e-4 -0.1215-0.0202-0.1793-0.0579-0.0579-0.0377-0.1314-0.1054-0.2204-0.2032l-0.0878-0.0967 0.9668-0.8803 0.3363 0.3689c0.1037 0.1139 0.1786 0.2127 0.2251 0.2961 0.0475 0.0825 0.0756 0.1661 0.0841 0.2508 0.0107 0.1023 7.9e-4 0.1965-0.0289 0.2826-0.0297 0.086-0.0832 0.1771-0.1607 0.2732l0.0355 0.0355 0.5067-0.5114zm63.48 1.505-1.651 1.662 0.0355 0.0355c0.0625-0.0567 0.118-0.0963 0.1672-0.1191 0.0502-0.0238 0.1045-0.035 0.162-0.0332 0.0647 8e-4 0.1282 0.0213 0.191 0.0612 0.0628 0.0378 0.147 0.109 0.2522 0.2134l1.14 1.132c0.1052 0.1044 0.177 0.1882 0.2162 0.2517 0.0393 0.0615 0.0596 0.1249 0.0607 0.1896 8e-4 0.0586-0.01 0.113-0.0332 0.1635-0.0225 0.0494-0.0616 0.1049-0.1168 0.1667l0.036 0.0355 1.832-1.845-0.5955-0.6314-0.0369 0.0341c0.0733 0.1117 0.1266 0.2076 0.1597 0.2877 0.0342 0.079 0.0551 0.1589 0.0626 0.24 0.0137 0.1181-5e-3 0.235-0.0556 0.3503-0.0521 0.1142-0.1396 0.2331-0.2625 0.3568-0.1167 0.1175-0.2282 0.1952-0.3339 0.2335-0.1057 0.0362-0.2128 0.0354-0.3218-4e-3 -0.0638-0.0224-0.1311-0.0619-0.2022-0.1182-0.0721-0.0573-0.1792-0.1563-0.3204-0.2966l-0.354-0.3517 0.0877-0.0878c0.0757-0.0763 0.146-0.1317 0.2106-0.1658 0.0646-0.0341 0.1287-0.0503 0.1924-0.0485 0.0658 2e-3 0.1317 0.018 0.1976 0.0485 0.0669 0.0296 0.1445 0.0794 0.233 0.149l0.0355-0.0355-0.8229-0.8294-0.0369 0.0336c0.0701 0.0881 0.1188 0.1599 0.1457 0.2153 0.0268 0.0533 0.0409 0.1096 0.042 0.1681 2e-3 0.0616-0.0138 0.122-0.0485 0.1817-0.0347 0.0597-0.0988 0.1364-0.192 0.2302l-0.092 0.0929-0.928-0.9214 0.3517-0.354c0.1085-0.1093 0.2034-0.1895 0.2844-0.24 0.08-0.0517 0.1619-0.0836 0.2461-0.0962 0.1017-0.0157 0.1965-0.0108 0.284 0.0145 0.0874 0.0254 0.1808 0.0745 0.2807 0.1471l0.0341-0.0374zm-61.12 1.424c-0.2223-9e-3 -0.4438 0.0361-0.6646 0.1359-0.2208 0.0998-0.4201 0.2449-0.5978 0.4348-0.1291 0.1379-0.2325 0.2859-0.3106 0.4437-0.077 0.1588-0.1225 0.3152-0.1359 0.4698-0.0179 0.2062 0.0183 0.4114 0.1084 0.6151 0.0911 0.2046 0.2299 0.3941 0.4166 0.5688 0.1358 0.1271 0.2806 0.2308 0.4343 0.311 0.1538 0.0802 0.3068 0.1319 0.4586 0.1546 0.0589 9e-3 0.1 0.0249 0.1233 0.0467 0.0191 0.0178 0.0418 0.053 0.0682 0.1056l0.0313-0.0392c0.0712-0.0846 0.1244-0.1463 0.1602-0.1845 0.1301-0.1389 0.2271-0.222 0.291-0.2499 0.0577-0.0256 0.1132-0.0295 0.1663-0.0117 0.055 0.0177 0.1332 0.0659 0.2344 0.1448l0.0341-0.0369-1.015-0.9499-0.0345 0.0364c0.1305 0.1222 0.2023 0.2328 0.2148 0.3321 0.0137 0.1003-0.0287 0.2032-0.127 0.3082-0.1062 0.1135-0.2294 0.1823-0.3694 0.2064-0.1012 0.0167-0.2035 9e-3 -0.3064-0.0239-0.1028-0.0326-0.1945-0.0866-0.2751-0.1621-0.2047-0.1916-0.2888-0.4494-0.2522-0.7734 0.0192-0.1671 0.0699-0.3328 0.1518-0.4969 0.083-0.1652 0.1923-0.3203 0.3283-0.4656 0.285-0.3045 0.6175-0.5004 0.998-0.588 0.1867-0.0422 0.3493-0.0465 0.4871-0.0131 0.1399 0.0334 0.2726 0.1093 0.3988 0.2274 0.1623 0.1519 0.2468 0.339 0.2531 0.5618 7e-3 0.2218-0.0624 0.4848-0.2097 0.7888l0.0392 0.0313 0.6291-0.7104-0.0416-0.0388c-0.0868 0.0481-0.1514 0.0523-0.1938 0.0127-0.0191-0.0179-0.0361-0.0424-0.0504-0.0738l-0.0532-0.1308c-0.0479-0.1125-0.1014-0.2112-0.1597-0.2956-0.0572-0.0834-0.1281-0.1648-0.213-0.2443-0.1464-0.137-0.3072-0.2435-0.4824-0.3199-0.1752-0.0764-0.3535-0.1191-0.5348-0.1275zm58.23 1.343-1.051 0.914 0.0332 0.0379c0.0611-0.0494 0.1156-0.0835 0.1644-0.1028 0.0498-0.0202 0.1024-0.0294 0.1579-0.0276 0.0678 3e-3 0.133 0.026 0.1948 0.0706 0.0619 0.0424 0.1432 0.122 0.2442 0.2382l1.054 1.212c0.0973 0.1118 0.1635 0.2009 0.198 0.2671 0.0348 0.0642 0.0503 0.1283 0.0467 0.1929-6e-3 0.1149-0.0644 0.2208-0.1751 0.3171l0.0345 0.0392 1.963-1.708-0.5651-0.6926-0.0425 0.0313c0.0679 0.1201 0.1166 0.222 0.1457 0.3064 0.0299 0.0835 0.047 0.1667 0.0519 0.2494 6e-3 0.1219-0.0204 0.2393-0.0799 0.3526-0.0593 0.1112-0.154 0.2237-0.2844 0.3372-0.125 0.1087-0.2413 0.1777-0.3484 0.2074-0.1081 0.0285-0.2157 0.0203-0.3227-0.0252-0.061-0.0259-0.126-0.0713-0.1957-0.1359-0.0697-0.0646-0.1679-0.1699-0.2947-0.3157l-0.8257-0.9485c-0.1001-0.1151-0.1672-0.206-0.2018-0.2723-0.0348-0.0662-0.049-0.1336-0.0429-0.2022 4e-3 -0.0542 0.0207-0.1043 0.0476-0.1508 0.0269-0.0465 0.0687-0.0979 0.1261-0.1536zm-55.8 0.4932-0.0313 0.0392c0.0622 0.0549 0.1076 0.1059 0.1368 0.1532 0.0292 0.0473 0.0464 0.0995 0.0509 0.1569 7e-3 0.0653-5e-3 0.1309-0.0364 0.1966-0.0317 0.0657-0.0942 0.157-0.1873 0.2742l-0.9994 1.258c-0.0931 0.1172-0.1678 0.1984-0.2246 0.2442s-0.1178 0.0724-0.1831 0.0799c-0.056 7e-3 -0.1108 3e-3 -0.1644-0.0136-0.0516-0.0169-0.112-0.05-0.1807-0.099l-0.0308 0.0392 1.09 0.8664 0.0308-0.0392c-0.0633-0.0559-0.1095-0.1073-0.1387-0.1546-0.0272-0.0475-0.0431-0.0997-0.0486-0.156-6e-3 -0.0644 5e-3 -0.1296 0.0364-0.1961 0.0326-0.0669 0.0951-0.1586 0.1873-0.2746l0.4796-0.6039 0.0836 0.0663c0.0512 0.0407 0.0906 0.0799 0.1177 0.1182 0.028 0.0371 0.0481 0.0793 0.0607 0.1266 0.0241 0.0934 0.0234 0.231-3e-3 0.4129-0.0266 0.183-0.0685 0.3842-0.1261 0.6039l-0.0962 0.3666c-5e-3 0.0234-0.0189 0.0774-0.0401 0.1625l0.5665 0.4502 0.0313-0.0392c-0.043-0.0416-0.0728-0.08-0.0892-0.1153-0.0153-0.0344-0.0234-0.0809-0.0239-0.1387-9e-4 -0.0712 0.0105-0.1753 0.0341-0.3124 0.0257-0.1374 0.0704-0.3502 0.1345-0.6389 0.0291-0.1254 0.0468-0.2142 0.0532-0.2667 7e-3 -0.0536 7e-3 -0.1029 4.8e-4 -0.1476-9e-3 -0.0569-0.0361-0.1266-0.0817-0.2092 0.0975 0.0478 0.1791 0.0806 0.2443 0.099 0.0663 0.0193 0.1327 0.0293 0.199 0.0299 0.2192-2.4e-4 0.3994-0.0892 0.5404-0.2667 0.0949-0.1195 0.1467-0.249 0.1555-0.3886 0.0109-0.1398-0.022-0.277-0.0985-0.4119-0.0685-0.1194-0.1877-0.2531-0.3577-0.4012-0.0423-0.0355-0.1323-0.1078-0.2699-0.2172zm0.6898 0.6342 0.07 0.0556c0.1217 0.0967 0.2091 0.1792 0.2625 0.2475 0.0542 0.0672 0.0899 0.1391 0.107 0.2158 0.0208 0.1 0.0165 0.2034-0.0127 0.3101-0.0271 0.1065-0.0762 0.2048-0.1476 0.2947-0.1338 0.1684-0.3053 0.2623-0.5151 0.2812-0.0932 7e-3 -0.1772-5e-3 -0.2513-0.0383-0.0729-0.032-0.1798-0.1037-0.3208-0.2158l-0.0649-0.0519zm52.74 0.8014-1.114 0.836 0.0304 0.0402c0.0645-0.0448 0.1214-0.0749 0.1714-0.0906 0.0512-0.0168 0.1045-0.0223 0.1597-0.0164 0.0674 7e-3 0.1302 0.0357 0.1887 0.0845 0.0587 0.0467 0.1345 0.1318 0.227 0.255l0.9644 1.284c0.0889 0.1185 0.1482 0.2121 0.1779 0.2807 0.0299 0.0665 0.0408 0.1319 0.0327 0.1962-0.0142 0.1142-0.0797 0.2155-0.1971 0.3036l0.0313 0.042 2.081-1.563-0.5137-0.7318-0.0444 0.028c0.059 0.1246 0.0998 0.2304 0.1228 0.3167 0.0239 0.0854 0.0353 0.1694 0.0341 0.2522-3e-3 0.1221-0.0377 0.2374-0.1051 0.3461-0.0671 0.1067-0.17 0.2119-0.3082 0.3157-0.1324 0.0994-0.253 0.1603-0.362 0.1821-0.1098 0.0207-0.2164 5e-3 -0.3199-0.0485-0.059-0.0302-0.121-0.08-0.1859-0.1494-0.0648-0.0694-0.1553-0.1817-0.2713-0.3362l-0.7552-1.006c-0.0916-0.122-0.152-0.2173-0.1817-0.2858-0.0297-0.0686-0.0392-0.137-0.0285-0.205 9e-3 -0.0538 0.0282-0.1026 0.0584-0.1471 0.0302-0.0445 0.0755-0.0924 0.1368-0.1438zm-50.85 0.5628-0.0289 0.0411c0.0654 0.051 0.1146 0.0994 0.1466 0.1448 0.0321 0.0455 0.0518 0.0967 0.0597 0.1536 0.0115 0.0648 4e-3 0.1305-0.0243 0.198-0.0276 0.0675-0.0843 0.1626-0.17 0.2853l-0.9196 1.317c-0.0857 0.1227-0.1554 0.2086-0.2092 0.2578-0.0539 0.0492-0.1132 0.0795-0.1779 0.0911-0.0555 0.0108-0.1108 9e-3 -0.1653-4e-3 -0.0525-0.0136-0.1143-0.0427-0.1859-0.0873l-0.0289 0.0411 1.142 0.7977 0.0289-0.0411c-0.0777-0.0614-0.1332-0.1207-0.1663-0.1775-0.0322-0.0579-0.0471-0.1213-0.0448-0.1906 3e-3 -0.0495 0.0191-0.1062 0.0495-0.17 0.0304-0.0638 0.0804-0.1454 0.1494-0.2443l0.9196-1.317c0.0574-0.0822 0.1118-0.1525 0.163-0.2106 0.0698-0.0771 0.1444-0.1235 0.2242-0.1387 0.0575-0.0112 0.1128-0.01 0.1653 4e-3 0.0537 0.0145 0.1155 0.0435 0.1859 0.0874l0.0289-0.0411zm49.1 0.7104-1.97 1.268 0.0271 0.042c0.0732-0.042 0.1362-0.0687 0.1892-0.0803 0.0542-0.0124 0.1091-0.0114 0.1649 3e-3 0.063 0.0147 0.121 0.048 0.1737 0.1004 0.0532 0.0504 0.1201 0.1378 0.2004 0.2625l0.8696 1.351c0.0803 0.1246 0.1323 0.2223 0.1569 0.2928 0.0251 0.0685 0.0314 0.1346 0.0187 0.198-0.0115 0.0575-0.034 0.108-0.0677 0.1522-0.0325 0.0434-0.0822 0.0898-0.1494 0.1383l0.0271 0.042 2.186-1.408-0.4455-0.7444-0.0435 0.0252c0.0475 0.1249 0.0787 0.23 0.0939 0.3153 0.0163 0.0845 0.0195 0.1671 9e-3 0.248-0.0119 0.1183-0.0552 0.2281-0.1298 0.3297-0.0754 0.1004-0.1864 0.198-0.333 0.2923-0.1393 0.0897-0.2645 0.1417-0.376 0.1565-0.111 0.0127-0.2157-0.0117-0.3138-0.0728-0.0575-0.0356-0.115-0.0886-0.1723-0.1588-0.0581-0.0715-0.1407-0.1908-0.2484-0.3582l-0.2704-0.4194 0.1046-0.0672c0.0904-0.0582 0.171-0.0974 0.2415-0.1168 0.0705-0.0197 0.1362-0.0215 0.198-6e-3 0.0638 0.016 0.1249 0.0461 0.1826 0.0902 0.0589 0.0433 0.1241 0.1082 0.1957 0.1952l0.042-0.0271-0.6249-0.9868-0.0435 0.0252c0.0496 0.1012 0.0814 0.1816 0.0957 0.2414 0.015 0.0578 0.017 0.1153 5e-3 0.1728-0.0111 0.0606-0.0401 0.1164-0.0868 0.1672-0.0467 0.0509-0.1256 0.1124-0.2368 0.184l-0.1102 0.0705-0.7076-1.099 0.4194-0.2704c0.1295-0.0834 0.2393-0.1408 0.3293-0.1728 0.0892-0.0334 0.1766-0.0471 0.2615-0.0411 0.1027 6e-3 0.1938 0.0316 0.2737 0.0752 0.0799 0.0436 0.1609 0.1112 0.2428 0.2036l0.0411-0.0289zm-47.53 0.3937-0.4516 0.6669 0.0407 0.0294c0.1204-0.1308 0.235-0.2226 0.3437-0.2755 0.1182-0.0574 0.2356-0.077 0.3521-0.0588 0.1178 0.0189 0.2749 0.0814 0.4722 0.1877 0.0924 0.0494 0.1777 0.0982 0.2559 0.1457l-1.155 1.9c-0.0777 0.1279-0.1424 0.2177-0.1943 0.2695-0.0506 0.0525-0.1074 0.0869-0.17 0.1032-0.0567 0.0146-0.1122 0.0162-0.1667 5e-3 -0.0532-0.0103-0.1172-0.0352-0.1915-0.0752l-0.0261 0.0425 1.19 0.7239 0.0261-0.043c-0.0685-0.0467-0.1202-0.0917-0.1551-0.135-0.0336-0.0426-0.0568-0.0928-0.0696-0.1499-0.0144-0.0631-0.0104-0.1295 0.0117-0.1994 0.0241-0.0704 0.0743-0.169 0.1513-0.2956l1.155-1.899c0.2756 0.1676 0.4607 0.3035 0.5558 0.4073 0.1132 0.1215 0.1779 0.2482 0.1943 0.3806 0.0184 0.1319-8e-3 0.2946-0.0794 0.4876l0.0453 0.0224 0.3839-0.7076zm45 1.187-0.0463 0.0252c3e-3 0.0363 4e-3 0.0632 2e-3 0.0808-6e-3 0.0379-0.025 0.0658-0.057 0.0831-0.023 0.0122-0.0528 0.0207-0.0897 0.0262l-0.1849 0.0336c-0.2043 0.035-0.384 0.0945-0.5385 0.1784-0.1621 0.0881-0.309 0.2035-0.4413 0.3465-0.1317 0.141-0.2308 0.2891-0.297 0.4441-0.0854 0.2019-0.1166 0.4246-0.0934 0.6683 0.0226 0.2424 0.0972 0.4805 0.2242 0.7141 0.1658 0.3051 0.3812 0.5291 0.6454 0.6716 0.2636 0.1412 0.5467 0.1841 0.849 0.1289 0.1893-0.0351 0.3717-0.1004 0.5478-0.1962 0.1889-0.1027 0.3389-0.2228 0.4493-0.3605 0.1117-0.1384 0.1776-0.2866 0.1976-0.4446 0.0211-0.1652-0.0113-0.3553-0.0967-0.5702l-0.0481 0.0164c0.0646 0.1981 0.0884 0.3699 0.0719 0.5161-0.0139 0.1266-0.0647 0.2473-0.1532 0.3615-0.0891 0.1129-0.2066 0.2086-0.3521 0.2877-0.2911 0.1582-0.5796 0.1844-0.8654 0.0784-0.1547-0.0565-0.3004-0.1516-0.4376-0.2854-0.1372-0.1338-0.2605-0.3012-0.3694-0.5016-0.1283-0.2362-0.2061-0.4666-0.234-0.6912-0.0202-0.1592-0.018-0.3119 7e-3 -0.4577 0.0242-0.1471 0.0683-0.2732 0.1317-0.3788 0.0719-0.1201 0.1799-0.2196 0.3241-0.298 0.0958-0.0521 0.1902-0.0833 0.2835-0.0943 0.0932-0.011 0.1939-2e-3 0.3022 0.0266 0.143 0.038 0.2688 0.0973 0.3769 0.1775 0.0606 0.0447 0.1465 0.1161 0.2578 0.2144 0.0181 0.015 0.0443 0.0374 0.0785 0.0668l0.0439-0.0239zm-42.21 0.4978-0.0224 0.0448c0.057 0.0322 0.0995 0.0604 0.128 0.0845 0.0285 0.0241 0.054 0.0543 0.0765 0.0902 0.0451 0.0684 0.0757 0.1688 0.092 0.3008l0.0205 0.1812 0.1205 1.012c0.0181 0.1541 0.0202 0.2753 6e-3 0.3643-0.0115 0.0773-0.0308 0.1431-0.0584 0.1976l-0.1938 0.3783c-0.0676 0.1336-0.125 0.2286-0.1714 0.2849-0.0464 0.0563-0.0999 0.0947-0.1611 0.1158-0.0553 0.0192-0.1106 0.0254-0.1658 0.0187-0.0552-7e-3 -0.1208-0.0267-0.1966-0.0603l-0.0229 0.0448 1.243 0.6291 0.0224-0.0448c-0.1322-0.067-0.2148-0.1559-0.248-0.2671-0.0199-0.0638-0.022-0.1293-6e-3 -0.1962 0.0179-0.0675 0.0619-0.1705 0.1322-0.3092l0.2415-0.4764c0.0453-0.0895 0.0832-0.15 0.1139-0.1817 0.0307-0.0317 0.093-0.0746 0.1868-0.128l0.786-0.4521c0.191-0.1102 0.3514-0.1845 0.4815-0.2228 0.0547-0.0147 0.1036-0.0201 0.1471-0.0159 0.0442 3e-3 0.1019 0.0175 0.1733 0.0439l0.0229-0.0448-0.8944-0.453-0.0229 0.0448c0.0959 0.0486 0.159 0.109 0.1892 0.1812 0.0302 0.0723 0.0242 0.1501-0.0177 0.233-0.0368 0.0726-0.098 0.1345-0.184 0.1854l-0.0911 0.0537-0.8075 0.4759-0.1093-1.091c-7e-3 -0.0754-0.0101-0.136-8e-3 -0.1821 4e-3 -0.0454 0.0129-0.0832 0.028-0.113 0.0413-0.0814 0.1059-0.1194 0.1943-0.114 0.0364 2e-3 0.11 0.0272 0.2209 0.0752l0.0229-0.0448zm39.29 1.078-0.914 0.4063 0.0205 0.0457c0.0887-0.0333 0.1529-0.051 0.1934-0.0528 0.0861-6e-3 0.1448 0.0254 0.1761 0.0957 0.0225 0.0504 0.0294 0.1139 0.0201 0.1896-0.01 0.0744-0.0418 0.2114-0.0957 0.4119l-0.1373 0.5119-0.5754-0.3545c-0.1792-0.1095-0.2846-0.2007-0.3171-0.2737-0.0313-0.0704-0.0128-0.136 0.0556-0.1966 0.042-0.0378 0.1088-0.0769 0.2004-0.1177l-0.0205-0.0462-1.312 0.5842 0.0201 0.0457c0.0278-9e-3 0.0484-0.0168 0.0616-0.0229 0.1183-0.0415 0.2078-0.0579 0.2685-0.05 0.0679 0.01 0.1656 0.0536 0.2928 0.1322l0.1737 0.1065 1.029 0.651-0.2363 0.8635c-0.08 0.2884-0.148 0.498-0.2046 0.6281-0.0379 0.09-0.0761 0.1584-0.114 0.2055-0.0371 0.0452-0.0894 0.0906-0.1565 0.1364l0.0205 0.0457 0.9677-0.4306-0.02-0.0458c-0.1086 0.0419-0.1988 0.0559-0.2704 0.0416-0.0709-0.0162-0.1222-0.0605-0.1541-0.1322-0.0227-0.0504-0.0315-0.1115-0.0267-0.1835 5e-3 -0.0739 0.0245-0.1714 0.0579-0.2928l0.2172-0.7884 0.8154 0.5198c0.0733 0.0469 0.1253 0.0832 0.156 0.1093 0.0307 0.0261 0.0519 0.0518 0.0631 0.0771 0.0319 0.0717 0.0171 0.1452-0.0448 0.2204-0.0379 0.0471-0.108 0.1004-0.2102 0.1602l0.0201 0.0457 1.382-0.6146-0.02-0.0463c-0.0827 0.0318-0.1529 0.0503-0.2097 0.0551-0.0555 4e-3 -0.1176-4e-3 -0.1864-0.022-0.1343-0.0372-0.3018-0.1193-0.503-0.2461l-1.138-0.7127 0.1938-0.7281 0.0663-0.2583c0.0631-0.2443 0.1285-0.4056 0.1971-0.4838 0.0439-0.0513 0.1168-0.0994 0.2176-0.1443zm-3.373 1.449-2.208 0.7832 0.0164 0.0476c0.0809-0.0239 0.1485-0.0356 0.2027-0.035 0.0557 5.3e-4 0.1092 0.0136 0.1602 0.0401 0.058 0.0287 0.1068 0.0751 0.1462 0.1382 0.0402 0.0613 0.0849 0.1616 0.1345 0.3012l0.5371 1.514c0.0496 0.1397 0.0781 0.247 0.0859 0.3213 9e-3 0.0725-1.5e-4 0.1378-0.0271 0.1966-0.0243 0.0533-0.0579 0.0978-0.1009 0.1331-0.0416 0.0348-0.1009 0.0682-0.1775 0.0999l0.0168 0.0472 2.45-0.8692-0.2634-0.8271-0.0481 0.0145c0.0178 0.1325 0.0244 0.2423 0.0196 0.3288-4e-3 0.0859-0.0192 0.167-0.0476 0.2433-0.0388 0.1124-0.1059 0.2096-0.2018 0.2914-0.0964 0.0804-0.227 0.1495-0.3914 0.2078-0.1561 0.0555-0.2898 0.0775-0.4016 0.0663-0.111-0.013-0.2076-0.0604-0.2891-0.1424-0.0478-0.0478-0.0915-0.1123-0.1312-0.1938-0.0402-0.0829-0.0936-0.2182-0.1602-0.4058l-0.1667-0.4703 0.1172-0.0416c0.1013-0.0357 0.1885-0.0554 0.2615-0.0584 0.073-3e-3 0.1376 0.0105 0.1943 0.0397 0.0585 0.0301 0.1108 0.0733 0.1569 0.1294 0.0475 0.0556 0.096 0.1343 0.1457 0.2354l0.0472-0.0168-0.382-1.104-0.0481 0.0149c0.0251 0.1098 0.0376 0.1953 0.0379 0.2568 8e-4 0.0597-0.0103 0.1162-0.0345 0.1695-0.0246 0.0565-0.0656 0.1041-0.1228 0.1429-0.0571 0.0388-0.1477 0.0804-0.2723 0.1247l-0.1233 0.0434-0.4376-1.232 0.4708-0.1672c0.1452-0.0515 0.2652-0.0824 0.3601-0.0929 0.0944-0.0119 0.182-5e-3 0.2634 0.0196 0.0985 0.0298 0.1816 0.0751 0.2494 0.1359 0.0678 0.0607 0.131 0.1453 0.1896 0.2541l0.0467-0.0187zm-31.5 0.5039c-0.0704-2e-3 -0.1409 0.01-0.2116 0.0341-0.0868 0.0297-0.1636 0.0766-0.2298 0.141-0.0656 0.0631-0.1148 0.1362-0.148 0.22-0.0637 0.1607-0.062 0.3203 5e-3 0.4782 0.0671 0.1579 0.1786 0.2681 0.3353 0.3302 0.1567 0.0621 0.3132 0.0583 0.4689-0.0112 0.1571-0.0691 0.267-0.1834 0.3302-0.3428 0.0637-0.1607 0.0625-0.3189-4e-3 -0.475-0.0658-0.1574-0.1778-0.2675-0.3358-0.3302-0.0702-0.0278-0.1402-0.0426-0.2106-0.0444zm2.883 0.1625-0.014 0.0481c0.0785 0.027 0.1403 0.0567 0.1854 0.0892 0.0451 0.0325 0.0803 0.0747 0.1065 0.1261 0.0319 0.0575 0.0458 0.1224 0.0416 0.1952-5e-3 0.0728-0.0269 0.1812-0.0682 0.325l-0.4423 1.544c-0.0412 0.1438-0.079 0.2479-0.114 0.312-0.035 0.0641-0.0813 0.112-0.1387 0.1438-0.0489 0.028-0.1015 0.0446-0.1574 0.05-0.0541 5e-3 -0.1223-4e-3 -0.2046-0.0224l-0.0136 0.0481 1.339 0.3834 0.0136-0.0481c-0.0798-0.0274-0.1422-0.0571-0.1873-0.0897-0.0433-0.0336-0.0781-0.0753-0.1046-0.1252-0.0305-0.0571-0.0444-0.1224-0.0416-0.1957 5e-3 -0.0742 0.0274-0.1826 0.0681-0.325l0.2214-0.7729 1.487 0.4259-0.2214 0.7729c-0.0412 0.1439-0.0799 0.2479-0.1163 0.3115-0.035 0.0641-0.0807 0.112-0.1368 0.1443-0.0503 0.0277-0.1034 0.0441-0.1592 0.0495-0.054 5e-3 -0.1219-3e-3 -0.2041-0.022l-0.014 0.0481 1.339 0.3834 0.0136-0.0481c-0.0785-0.0269-0.1399-0.0571-0.1849-0.0896-0.0433-0.0335-0.0791-0.0753-0.107-0.1256-0.0301-0.0586-0.0439-0.1243-0.0411-0.1976 5e-3 -0.0728 0.0269-0.1807 0.0677-0.3232l0.4423-1.544c0.0408-0.1425 0.0785-0.2456 0.1135-0.3096 0.0368-0.0651 0.0835-0.1139 0.1396-0.1462 0.0507-0.0292 0.1028-0.0457 0.1569-0.05 0.0555-4e-3 0.1237 4e-3 0.2046 0.022l0.014-0.0481-1.339-0.3834-0.014 0.0481c0.0798 0.0274 0.1417 0.0575 0.1854 0.0897 0.0451 0.0325 0.0813 0.0744 0.1088 0.1261 0.0305 0.0571 0.0435 0.1224 0.0392 0.1952-3e-3 0.0733-0.0247 0.1816-0.0659 0.3255l-0.1924 0.6725-1.488-0.4259 0.1929-0.6725c0.0409-0.1425 0.0785-0.2461 0.1135-0.3101 0.0368-0.0651 0.083-0.1134 0.1392-0.1457 0.0507-0.0292 0.1033-0.0462 0.1574-0.0504 0.0555-4e-3 0.1237 4e-3 0.2046 0.0224l0.0136-0.0481zm5.216 1.28c-0.0886-7.9e-4 -0.1782 5e-3 -0.269 0.0201-0.1813 0.0277-0.356 0.0842-0.5245 0.1691-0.226 0.1152-0.4102 0.2656-0.552 0.4516-0.1415 0.1845-0.235 0.3969-0.2807 0.6366-0.0347 0.1826-0.037 0.3648-6e-3 0.5464 0.0322 0.1806 0.095 0.3486 0.1882 0.5039 0.1176 0.1984 0.2712 0.3638 0.4605 0.496 0.1893 0.1321 0.397 0.2197 0.624 0.2629 0.2298 0.0437 0.459 0.0375 0.687-0.0183 0.2294-0.0555 0.4376-0.1555 0.6249-0.3003 0.1522-0.116 0.2775-0.2527 0.3755-0.4101 0.098-0.1574 0.1642-0.3273 0.199-0.51 0.0692-0.364 5e-3 -0.7124-0.1915-1.046-0.1208-0.2049-0.2745-0.3748-0.4619-0.5096-0.1871-0.1362-0.3906-0.2253-0.6104-0.2671-0.0863-0.0164-0.1739-0.0248-0.2625-0.0257zm0.0121 0.07c0.0681-7.9e-4 0.1401 6e-3 0.2158 0.0205 0.1527 0.029 0.2796 0.0811 0.3806 0.1565 0.1027 0.0743 0.1887 0.179 0.2578 0.3134 0.0856 0.1642 0.1393 0.3549 0.1616 0.5721 0.0239 0.2161 0.0143 0.439-0.0295 0.6688-0.0795 0.4182-0.2591 0.7485-0.539 0.991-0.1272 0.1089-0.2537 0.1809-0.3788 0.2162-0.1236 0.0356-0.2602 0.0392-0.41 0.0108-0.1484-0.0283-0.2745-0.0819-0.3778-0.1607-0.1016-0.08-0.1909-0.1932-0.2681-0.3395-0.1715-0.327-0.2179-0.6971-0.1392-1.111 0.0448-0.2355 0.1176-0.4502 0.2181-0.644 0.1005-0.1938 0.2204-0.3504 0.3601-0.4703 0.1167-0.1005 0.235-0.167 0.3549-0.1989 0.0607-0.0159 0.1252-0.024 0.1933-0.0248zm15.28 0.2209c-0.0896-7.9e-4 -0.1902 5e-3 -0.3022 0.0177-0.0548 7e-3 -0.1692 0.025-0.3428 0.0528l-1.037 0.1658 8e-3 0.0495c0.0824-8e-3 0.1508-7e-3 0.2055 3e-3 0.0546 0.0104 0.105 0.0333 0.1504 0.0687 0.0532 0.0386 0.0934 0.092 0.1205 0.1597 0.027 0.0678 0.052 0.1754 0.0756 0.3232l0.2541 1.586c0.0239 0.1478 0.0338 0.2578 0.0289 0.3307-5e-3 0.0728-0.0264 0.1359-0.0649 0.1891-0.0323 0.0464-0.0725 0.0837-0.121 0.1121-0.0473 0.0267-0.1122 0.0491-0.1948 0.0668l8e-3 0.0495 1.375-0.2204-8e-3 -0.0495c-0.0839 9e-3 -0.1532 9e-3 -0.2078-2e-3 -0.0534-0.012-0.1029-0.0352-0.148-0.0691-0.0518-0.0388-0.092-0.0922-0.1205-0.1597-0.0272-0.0692-0.0527-0.1768-0.0761-0.3232l-0.1219-0.7617 0.1055-0.0177c0.0645-0.0108 0.1202-0.013 0.1667-7e-3 0.0464 5e-3 0.0912 0.0177 0.1345 0.0401 0.0852 0.0452 0.1862 0.139 0.3031 0.2807 0.1171 0.1431 0.2373 0.31 0.3606 0.5006l0.2055 0.318c0.0135 0.0199 0.0445 0.0665 0.0929 0.1396l0.7146-0.1144-8e-3 -0.0495c-0.0597 4e-3 -0.1081-5.2e-4 -0.1452-0.0121-0.0358-0.0119-0.0752-0.0374-0.1182-0.0761-0.0532-0.0474-0.1225-0.1259-0.2078-0.2358-0.0841-0.1116-0.2109-0.2884-0.3806-0.5306-0.0728-0.106-0.1263-0.1794-0.1606-0.2195-0.0346-0.0416-0.071-0.0746-0.1088-0.0995-0.0478-0.0321-0.1174-0.0591-0.2092-0.0812 0.1011-0.0398 0.1802-0.0774 0.2377-0.113 0.059-0.0359 0.1113-0.0781 0.1565-0.1266 0.1477-0.162 0.2035-0.3548 0.1677-0.5786-0.0241-0.1507-0.0846-0.2762-0.1817-0.3769-0.0958-0.1024-0.2196-0.1713-0.3708-0.206-0.0671-0.0149-0.1454-0.0228-0.2349-0.0238zm3.778 0.0238c-0.04 3e-3 -0.0807 9e-3 -0.1219 0.0192-0.1464 0.0375-0.2623 0.1176-0.3479 0.2401-0.0528 0.075-0.087 0.1579-0.1027 0.2489-0.0161 0.0896-0.013 0.178 9e-3 0.2653 0.0428 0.1675 0.1382 0.2956 0.2854 0.3839 0.1471 0.0883 0.3019 0.1114 0.4652 0.0696 0.1633-0.0418 0.2875-0.1367 0.3727-0.2844 0.0866-0.1481 0.1089-0.3052 0.0663-0.4712-0.0428-0.1675-0.1372-0.2947-0.2826-0.382-0.1093-0.0665-0.2238-0.0963-0.3437-0.0892zm-4.078 0.0911c0.0862 5e-3 0.1636 0.0277 0.2316 0.0668 0.0879 0.0521 0.1613 0.125 0.2204 0.2186 0.0604 0.0919 0.0996 0.1944 0.1177 0.3078 0.034 0.2123-0.0129 0.4022-0.1406 0.5698-0.0573 0.0739-0.1233 0.1273-0.1976 0.1597-0.0728 0.0323-0.198 0.0625-0.376 0.0911l-0.0817 0.0131-0.2218-1.386 0.0883-0.014c0.1535-0.0246 0.2732-0.0338 0.3596-0.027zm-12.59 0.0738-5e-3 0.05c0.0834 0.0127 0.1498 0.0308 0.1985 0.0547 0.0502 0.0239 0.0927 0.0592 0.1275 0.1051 0.0402 0.0508 0.0646 0.1129 0.0733 0.1868 0.0103 0.0726 8e-3 0.1818-6e-3 0.3279l-0.1602 1.6c-0.0147 0.1475-0.0343 0.2564-0.0588 0.3269-0.0229 0.0692-0.0594 0.1249-0.1088 0.1667-0.0446 0.0379-0.0941 0.0634-0.148 0.077-0.0525 0.0135-0.1198 0.0186-0.2027 0.0149l-5e-3 0.0495 0.9999 0.1004 5e-3 -0.05c-0.082-0.0126-0.1479-0.0312-0.198-0.0551-0.0487-0.0239-0.0912-0.0587-0.1275-0.1046-0.0402-0.0508-0.0654-0.1124-0.0756-0.1849-9e-3 -0.0724-6e-3 -0.1831 9e-3 -0.3321l0.1892-1.887 1.786 2.772 0.0976 0.01 0.2279-2.281c0.0146-0.146 0.0335-0.2539 0.0565-0.3232 0.0246-0.0705 0.0617-0.1263 0.1112-0.1681 0.0894-0.0757 0.2062-0.1065 0.3507-0.092l5e-3 -0.05-0.9999-0.1-4e-3 0.0495c0.082 0.0126 0.147 0.0313 0.1957 0.0551 0.0502 0.024 0.0936 0.0587 0.1298 0.1046 0.0402 0.0508 0.0645 0.1125 0.0733 0.185 0.0103 0.0726 8e-3 0.1831-7e-3 0.332l-0.1564 1.566-1.536-2.423zm10.72 0.1177-1.002 0.078 4e-3 0.05c0.0829-2e-3 0.1505 5e-3 0.2027 0.0192 0.0536 0.0147 0.1024 0.0415 0.1462 0.0804 0.0485 0.0428 0.0836 0.0993 0.1051 0.1691 0.0229 0.0696 0.0402 0.1791 0.0519 0.3283l0.0943 1.214c0.0172 0.2217 0.0254 0.3624 0.0243 0.4222-2e-3 0.0919-0.014 0.1687-0.0369 0.2302-0.0214 0.0614-0.0581 0.1201-0.1107 0.1752-0.0849 0.0882-0.1948 0.1606-0.3288 0.2176-0.1327 0.0555-0.2743 0.0891-0.425 0.1009-0.155 0.0121-0.286-3e-3 -0.3928-0.0457-0.1055-0.0443-0.1971-0.1208-0.2755-0.2298-0.0522-0.0717-0.0897-0.1515-0.1126-0.2386-0.0215-0.0887-0.04-0.233-0.0556-0.4329l-0.0957-1.23c-0.0137-0.1767-0.0163-0.3019-7e-3 -0.3755 0.0103-0.0736 0.0378-0.1371 0.0817-0.1901 0.0359-0.045 0.0792-0.0789 0.1298-0.1018 0.0507-0.0229 0.1167-0.0397 0.199-0.0504l-4e-3 -0.05-1.388 0.1079 4e-3 0.05c0.0843-2e-3 0.1529 5e-3 0.205 0.0192 0.0536 0.0147 0.1015 0.0418 0.1438 0.0808 0.05 0.0427 0.086 0.0989 0.1074 0.1686 0.0214 0.0698 0.0379 0.1791 0.0495 0.3283l0.1028 1.319c0.0129 0.1666 0.026 0.2816 0.0397 0.3447 0.0386 0.1777 0.1251 0.3168 0.2597 0.4171 0.2075 0.1572 0.5162 0.2196 0.9261 0.1877 0.3926-0.0305 0.6877-0.1452 0.885-0.3442 0.0865-0.087 0.1414-0.1795 0.1644-0.2774 0.0243-0.0995 0.0284-0.2507 0.0126-0.4535l-0.1065-1.371c-0.0115-0.1478-0.0123-0.258-2e-3 -0.3302 0.0117-0.0738 0.0386-0.1356 0.0799-0.1854 0.0373-0.0452 0.0802-0.079 0.1294-0.1018 0.0507-0.023 0.1172-0.0397 0.1994-0.0504zm-5.346 0.1756c-0.1758-2e-3 -0.3504 0.0273-0.524 0.0879-0.1736 0.0591-0.3362 0.1452-0.4871 0.2583-0.2022 0.1532-0.3568 0.3337-0.4638 0.5418-0.1069 0.2066-0.1617 0.4322-0.1644 0.6762-2e-3 0.186 0.0281 0.3658 0.0901 0.5394 0.0634 0.1722 0.1546 0.3264 0.2737 0.4628 0.1506 0.1746 0.3307 0.3105 0.5404 0.4073 0.2096 0.0969 0.4298 0.1466 0.6608 0.149 0.2339 3e-3 0.4583-0.0437 0.673-0.1387 0.2161-0.0949 0.4034-0.2299 0.5623-0.4054 0.1294-0.141 0.2287-0.2977 0.2975-0.4698 0.0688-0.1721 0.104-0.3511 0.106-0.5371 4e-3 -0.3705-0.1198-0.7023-0.3722-0.9957-0.1549-0.1804-0.3364-0.3206-0.5446-0.4203-0.2081-0.1012-0.424-0.1531-0.6478-0.1555zm-0.0229 0.0696c0.1555 2e-3 0.2899 0.0309 0.4026 0.0874 0.1142 0.055 0.2171 0.1423 0.3087 0.2624 0.1132 0.1466 0.1995 0.3248 0.2597 0.5348 0.0616 0.2085 0.0913 0.4297 0.0888 0.6636-5e-3 0.4257-0.1235 0.7829-0.3563 1.071-0.1061 0.1296-0.2175 0.2224-0.3344 0.2792-0.1154 0.0569-0.2496 0.0845-0.4021 0.0827-0.1511-2e-3 -0.2842-0.0321-0.3998-0.0915-0.1141-0.0608-0.222-0.1563-0.3236-0.2868-0.2263-0.2917-0.3372-0.6482-0.3325-1.07 3e-3 -0.2397 0.0361-0.464 0.1009-0.6725 0.0648-0.2085 0.1554-0.3842 0.2718-0.5268 0.0972-0.1195 0.2023-0.2052 0.3148-0.2578 0.1139-0.0526 0.2476-0.0779 0.4016-0.0761z" fill="#fcfcfc" style="paint-order:stroke fill markers"/></g></svg>
